<?xml version="1.0" encoding="UTF-8"?><svg xmlns="http://www.w3.org/2000/svg" xmlns:xlink="http://www.w3.org/1999/xlink" viewBox="0 0 1045.14 641.75"><defs><style>.ah{fill:url(#t);}.ai{fill:#08585c;}.aj{fill:#9a9ab5;}.ak{fill:#e4e7f4;}.al{fill:#fff;}.am{fill:#203e56;}.an,.ao,.ap{stroke:#0998fd;stroke-miterlimit:10;stroke-width:2px;}.an,.ao,.ap,.aq{fill:none;}.ar{fill:#5a7da0;}.as{fill:#d76805;}.at{fill:#4848d8;}.au{fill:#ebedec;}.av{fill:url(#y);}.aw{fill:url(#l);}.ao{stroke-dasharray:0 0 0 0 0 0 12.33 5.14 12.33 5.14 12.33 5.14;}.ap{stroke-dasharray:0 0 0 0 12.33 5.14 12.33 5.14;}.ax{fill:url(#af);}.ay{fill:#142c6d;}.b`{fill:#c8c8e8;}.ba{fill:url(#u);}.bb{fill:#c1c4e5;}.bc{fill:#261da0;}.bd{fill:url(#v);}.be{fill:#8f9dc9;}.bf{fill:#5050e2;}.bg{fill:url(#a`);}.bh{fill:#fdac43;}.bi{fill:url(#m);}.bj{fill:#7285b2;}.bk{fill:url(#f);}.bl{fill:#fffeff;}.bm{fill:url(#p);}.bn{fill:#edeff9;}.bo{fill:#f2f5fc;}.bp{fill:url(#g);}.bq{fill:#f2f3f9;}.br{fill:#10b9c1;}.bs{fill:url(#ad);}.bt{fill:#bc5806;}.bu{fill:#d0d2ef;}.bv{fill:#526984;}.bw{fill:#3f3cce;}.bx{fill:#5757f2;}.by{fill:#050310;}.c`{fill:#cbcecd;}.ca{fill:#eff1fe;}.cb{fill:url(#h);}.cc{fill:#ad2cf0;}.cd{fill:url(#d);}.ce{fill:url(#e);}.cf{fill:#3623b4;}.cg{fill:#d1dfe8;}.ch{fill:url(#x);}.ci{fill:#2d3f50;}.cj{fill:#b9bbd6;}.ck{fill:url(#aa);}.cl{fill:url(#s);}.cm{fill:url(#n);}.cn{fill:url(#ac);}.co{fill:#0d949c;}.cp{fill:#7b8bb2;}.cq{fill:#934206;}.cr{fill:url(#w);}.cs{fill:#ffa14d;}.ct{fill:#cacce8;}.cu{fill:#8393ba;}.cv{fill:url(#j);}.cw{fill:url(#o);}.cx{fill:url(#q);}.cy{fill:url(#ag);}.d`{fill:#595959;}.da{fill:#7486aa;}.db{fill:#e27113;}.dc{fill:#b2b6d8;}.dd{fill:#c2cbf2;}.de{fill:#f49432;}.df{fill:#3a5a77;}.dg{fill:#dcddfb;}.dh{fill:#fcfcfc;}</style><linearGradient id="d" x1="506.94" y1="405.89" x2="812.39" y2="405.89" gradientTransform="matrix(1, 0, 0, 1, 0, 0)" gradientUnits="userSpaceOnUse"><stop offset="0" stop-color="#c9cff1"/><stop offset="1" stop-color="#f1f3ff" stop-opacity="0"/></linearGradient><linearGradient id="e" x1="225.73" y1="198.28" x2="409" y2="198.28" xlink:href="#d"/><linearGradient id="f" x1="238.49" y1="572.57" x2="421.76" y2="572.57" xlink:href="#d"/><linearGradient id="g" x1="802.93" y1="557.42" x2="986.19" y2="557.42" xlink:href="#d"/><linearGradient id="h" x1="861.87" y1="202.82" x2="1045.14" y2="202.82" xlink:href="#d"/><linearGradient id="j" x1="875.87" y1="563.29" x2="790.89" y2="441.99" gradientTransform="matrix(1, 0, 0, 1, 0, 0)" gradientUnits="userSpaceOnUse"><stop offset=".12" stop-color="#ad2cf0"/><stop offset="1" stop-color="#0998fd"/></linearGradient><linearGradient id="l" x1="125.57" y1="22.4" x2="113.55" y2="7.86" gradientTransform="matrix(1, 0, 0, 1, 0, 0)" gradientUnits="userSpaceOnUse"><stop offset=".08" stop-color="#ad2cf0"/><stop offset="1" stop-color="#0998fd"/></linearGradient><linearGradient id="m" x1="122.4" y1="171.74" x2="233.35" y2="171.74" gradientTransform="matrix(1, 0, 0, 1, 0, 0)" gradientUnits="userSpaceOnUse"><stop offset="0" stop-color="#fefefe"/><stop offset="1" stop-color="#f1f3ff"/></linearGradient><linearGradient id="n" x1="117.45" y1="101.97" x2="228.54" y2="101.97" xlink:href="#m"/><linearGradient id="o" x1="39.22" y1="71.99" x2="27.19" y2="57.45" xlink:href="#l"/><linearGradient id="p" x1="85.24" y1="46.68" x2="73.21" y2="32.14" xlink:href="#l"/><linearGradient id="q" x1="186.33" y1="202.32" x2="124.66" y2="63.64" gradientTransform="matrix(1, 0, 0, 1, 0, 0)" gradientUnits="userSpaceOnUse"><stop offset="0" stop-color="#ad2cf0"/><stop offset="1" stop-color="#0998fd"/></linearGradient><linearGradient id="s" x1="750.08" y1="181.44" x2="742.34" y2="84.7" xlink:href="#j"/><linearGradient id="t" x1="737.66" y1="129.54" x2="744.15" y2="129.54" xlink:href="#m"/><linearGradient id="u" x1="821.14" y1="233.96" x2="808.57" y2="158.79" xlink:href="#j"/><linearGradient id="v" x1="808.06" y1="186.95" x2="818.64" y2="186.95" xlink:href="#m"/><linearGradient id="w" x1="849.64" y1="249.25" x2="846.34" y2="170.25" xlink:href="#j"/><linearGradient id="x" x1="838.54" y1="189.7" x2="856.17" y2="189.7" xlink:href="#m"/><linearGradient id="y" x1="915.34" y1="212.9" x2="905.6" y2="158.07" xlink:href="#j"/><linearGradient id="a`" x1="888.23" y1="172.91" x2="928.24" y2="172.91" xlink:href="#m"/><linearGradient id="aa" x1="810.43" y1="81.57" x2="861.33" y2="81.57" gradientTransform="matrix(1, 0, 0, 1, 0, 0)" gradientUnits="userSpaceOnUse"><stop offset="0" stop-color="#fb81fb"/><stop offset="1" stop-color="#00fff1"/></linearGradient><linearGradient id="ac" x1="360.85" y1="301.02" x2="637.74" y2="400.8" gradientTransform="matrix(1, 0, 0, 1, 0, 0)" gradientUnits="userSpaceOnUse"><stop offset="0" stop-color="#cfd0f0"/><stop offset=".63" stop-color="#fafafe"/><stop offset="1" stop-color="#cbccef"/></linearGradient><linearGradient id="ad" x1="548.08" y1="425.76" x2="490" y2="213.45" xlink:href="#j"/><linearGradient id="af" x1="164.92" y1="544.51" x2="113.24" y2="512.95" gradientTransform="matrix(1, 0, 0, 1, 0, 0)" gradientUnits="userSpaceOnUse"><stop offset="0" stop-color="#e160d4"/><stop offset="1" stop-color="#4227b6"/></linearGradient><linearGradient id="ag" x1="273.23" y1="544.57" x2="291.84" y2="544.57" xlink:href="#m"/></defs><g id="a"/><g id="b"><g id="c"><g><ellipse class="bq" cx="525.04" cy="343.02" rx="393.69" ry="246.64"/><polygon class="cd" points="506.94 453.76 717.65 456.04 812.39 403.61 711.45 355.74 506.94 355.74 506.94 453.76"/><g><line class="an" x1="539.24" y1="355.74" x2="534.05" y2="358.75"/><line class="ap" x1="529.6" y1="361.33" x2="501.61" y2="377.57"/><line class="ao" x1="499.39" y1="378.86" x2="275.01" y2="509.07"/><line class="an" x1="272.78" y1="510.36" x2="267.59" y2="513.37"/></g><g><line class="an" x1="805.46" y1="199.11" x2="800.27" y2="202.12"/><line class="ap" x1="795.83" y1="204.7" x2="767.83" y2="220.94"/><line class="ao" x1="765.61" y1="222.23" x2="541.23" y2="352.44"/><line class="an" x1="539.01" y1="353.73" x2="533.82" y2="356.74"/></g><g><line class="an" x1="576.35" y1="397.42" x2="581.55" y2="400.42"/><line class="ap" x1="586" y1="402.99" x2="614.04" y2="419.16"/><line class="ao" x1="616.26" y1="420.44" x2="841" y2="550.03"/><line class="an" x1="843.22" y1="551.32" x2="848.42" y2="554.31"/></g><polygon class="ce" points="225.73 246.15 352.16 248.43 409 196 348.44 148.13 225.73 148.13 225.73 246.15"/><g><line class="an" x1="169.88" y1="156.34" x2="175.08" y2="159.33"/><line class="ap" x1="179.53" y1="161.9" x2="207.57" y2="178.07"/><line class="ao" x1="209.79" y1="179.35" x2="434.53" y2="308.95"/><line class="an" x1="436.75" y1="310.23" x2="441.95" y2="313.23"/></g><polygon class="bk" points="238.49 620.44 364.92 622.72 421.76 570.29 361.2 522.42 238.49 522.42 238.49 620.44"/><polygon class="bp" points="802.93 605.29 929.35 607.57 986.19 555.14 925.64 507.27 802.93 507.27 802.93 605.29"/><polygon class="cb" points="861.87 250.69 988.3 252.97 1045.14 200.54 984.58 152.67 861.87 152.67 861.87 250.69"/></g></g><g id="i"><g><path class="ar" d="M702.62,528.12s-.61,6.85-9.25,8.2v-6.19c0-.87-.71-1.58-1.58-1.58s-1.58,.71-1.58,1.58v26.73c0,.87,.71,1.58,1.58,1.58s1.58-.71,1.58-1.58v-18.7s8.26-.78,11.1-9.39c0,0-1.58-1.87-1.85-.66Z"/><path class="ai" d="M712.05,506.51c0-2.33-1.38-4.31-3.33-5.12-1.89-8.2-8.94-14.3-17.36-14.3-9.42,0-17.12,7.63-17.81,17.31-2.64,1.56-4.43,4.52-4.43,7.92,0,5.02,3.89,9.09,8.69,9.09,.27,0,.53-.02,.79-.04,2.64,6.2,8.58,10.53,15.49,10.53,9.37,0,16.97-7.95,16.97-17.75,0-1.34-.15-2.64-.42-3.89,.87-.98,1.41-2.3,1.41-3.74Z"/><polygon class="cv" points="807.09 558.45 752.45 478.25 846.11 428.3 900.55 505.18 807.09 558.45"/><polygon class="bx" points="752.57 478.25 699.5 501 728.16 482.62 810.92 440.15 846.23 428.3 752.57 478.25"/><polygon class="cj" points="805.25 617.06 805.25 561.87 899.21 508.88 899.21 563.71 805.25 617.06"/><polygon class="dg" points="805.25 561.87 750.97 483.96 713.13 499.47 713.13 564.64 805.25 617.06 805.25 561.87"/><polygon class="br" points="735.87 577.58 716.75 589.48 762.92 616.01 783.37 604.61 735.87 577.58"/><polygon class="dc" points="735.87 577.58 713.13 564.64 713.13 574.72 727.29 582.92 735.87 577.58"/><polygon class="dc" points="716.75 589.48 716.75 598.61 762.99 625.61 762.92 616.01 716.75 589.48"/><polygon class="cu" points="762.92 616.01 783.37 604.61 783.37 613.77 762.99 625.61 762.92 616.01"/><polygon class="dc" points="783.37 604.61 805.25 617.06 805.25 627.34 783.37 613.77 783.37 604.61"/><polygon class="cu" points="899.21 563.71 805.25 617.06 805.25 627.34 899.21 573.57 899.21 563.71"/><polygon class="bl" points="767.4 595.53 767.4 545.49 750.51 535.96 750.51 586.05 767.4 595.53"/><polygon class="ay" points="765.27 561.39 754.5 555.3 754.5 543.11 765.27 549.11 765.27 561.39"/><polygon class="ay" points="750.51 535.96 744.12 532.63 744.12 582.28 750.51 586.05 750.51 535.96"/><path class="ay" d="M752.45,567.23h0c-.5-.19-.91-.76-.91-1.27v-4.02c0-.5,.41-.75,.91-.56h0c.5,.19,.91,.76,.91,1.27v4.02c0,.5-.41,.75-.91,.56Z"/><polygon class="bl" points="735.4 529.93 721.38 522.04 721.38 548.03 735.4 556.33 735.4 529.93"/><polygon class="ay" points="721.38 522.04 718.52 520.2 718.52 546.6 721.38 548.03 721.38 522.04"/><polygon class="ay" points="735.4 532.63 725.4 527.2 725.4 546.41 735.4 551.96 735.4 532.63"/><polygon class="bl" points="792.52 560.24 778.5 552.35 778.5 578.34 792.52 586.64 792.52 560.24"/><polygon class="ay" points="778.5 552.35 775.64 550.51 775.64 576.91 778.5 578.34 778.5 552.35"/><polygon class="ay" points="792.52 562.94 782.52 557.51 782.52 576.72 792.52 582.27 792.52 562.94"/><polygon class="bl" points="829.36 558.53 843.38 550.64 843.38 576.63 829.36 584.93 829.36 558.53"/><polygon class="ay" points="843.38 550.64 846.23 548.8 846.23 575.2 843.38 576.63 843.38 550.64"/><polygon class="ay" points="829.36 561.23 839.36 555.8 839.36 575.01 829.36 580.56 829.36 561.23"/><polygon class="bl" points="865.59 538.6 879.61 530.7 879.61 556.69 865.59 565 865.59 538.6"/><polygon class="ay" points="879.61 530.7 882.47 528.87 882.47 555.27 879.61 556.69 879.61 530.7"/><polygon class="ay" points="865.59 541.3 875.59 535.86 875.59 555.08 865.59 560.63 865.59 541.3"/><polyline class="bl" points="752.57 478.25 699.5 501 699.5 504.91 750.97 483.96 805.25 561.87 900.55 508.12 900.55 505.18 806.3 558.45 752.83 478.81"/><rect class="ar" x="905.35" y="571.43" width="3.82" height="18.5" rx="1.91" ry="1.91"/><path class="de" d="M921.07,547.86c.15-.9,.24-1.83,.24-2.78,0-3.44-1.02-6.6-2.72-9.18,.11-.84,.17-1.71,.17-2.59,0-8.58-5.15-15.54-11.5-15.54s-11.5,6.96-11.5,15.54c0,.94,.07,1.85,.19,2.74-1.64,2.55-2.62,5.66-2.62,9.03,0,.98,.09,1.94,.25,2.87-2.95,2.75-4.76,6.38-4.76,10.36,0,8.58,8.31,15.54,18.56,15.54s18.56-6.96,18.56-15.54c0-4.03-1.85-7.7-4.86-10.46Z"/><g><path d="M722.1,507.36c.32-.41,.77-.62,1.34-.63,.57-.01,1.22,.17,1.95,.57,.89,.48,1.65,1.13,2.28,1.94,.63,.81,1.06,1.68,1.27,2.61l-2.01-1.08c-.15-.39-.36-.75-.63-1.06s-.59-.56-.93-.75c-.56-.3-1.02-.35-1.37-.15-.35,.2-.52,.63-.52,1.29s.17,1.27,.52,1.85c.35,.58,.8,1.02,1.37,1.32,.35,.19,.66,.27,.93,.26s.49-.14,.63-.37l2.01,1.08c-.21,.7-.64,1.11-1.27,1.23-.63,.12-1.39-.05-2.28-.53-.73-.39-1.37-.9-1.95-1.54s-1.02-1.32-1.34-2.07c-.32-.75-.48-1.49-.48-2.23s.16-1.31,.48-1.72Z"/><path d="M731.89,510.88v7.49l-1.82-.98v-7.49l1.82,.98Z"/><path d="M735.01,512.56v4.48c0,.45,.11,.85,.33,1.21,.22,.36,.54,.66,.97,.89s.75,.29,.98,.17c.23-.12,.34-.4,.34-.85v-4.48l1.82,.98v4.47c0,.67-.14,1.16-.43,1.47-.28,.31-.67,.45-1.15,.43-.48-.02-1.02-.2-1.61-.51s-1.12-.72-1.58-1.2c-.47-.48-.83-1.03-1.1-1.64s-.41-1.25-.41-1.92v-4.47l1.82,.98Z"/><path d="M745.61,518.76c.59,.63,1.05,1.32,1.37,2.06,.32,.74,.49,1.48,.49,2.22s-.16,1.3-.49,1.69c-.32,.39-.78,.59-1.38,.58-.59,0-1.28-.22-2.07-.64l-2.81-1.51v-7.49l2.81,1.51c.79,.43,1.48,.95,2.07,1.59Zm-.58,4.57c.38-.17,.58-.6,.58-1.29s-.19-1.33-.58-1.92-.92-1.07-1.61-1.45l-.86-.47v4.35l.86,.47c.69,.37,1.23,.47,1.61,.3Z"/><path d="M753.16,528.53l-2.8-1.51-.45,1.08-1.91-1.03,2.71-6.03,2.11,1.14,2.71,8.95-1.93-1.04-.45-1.57Zm-.47-1.66l-.93-3.24-.92,2.25,1.85,1Z"/><path d="M761.24,527.18c.59,.63,1.05,1.32,1.37,2.06,.32,.74,.49,1.48,.49,2.22s-.16,1.3-.49,1.69c-.32,.39-.78,.59-1.38,.58-.59,0-1.28-.22-2.07-.64l-2.81-1.51v-7.49l2.81,1.51c.79,.43,1.48,.95,2.07,1.59Zm-.58,4.57c.38-.17,.58-.6,.58-1.29s-.19-1.33-.58-1.92-.92-1.07-1.61-1.45l-.86-.47v4.35l.86,.47c.69,.37,1.23,.47,1.61,.3Z"/><path d="M768.78,536.95l-2.8-1.51-.45,1.08-1.91-1.03,2.71-6.03,2.11,1.14,2.71,8.95-1.93-1.04-.45-1.57Zm-.47-1.66l-.93-3.24-.92,2.25,1.85,1Z"/><path d="M778.69,543.62l-1.83-.98-3.05-6.27v4.62l-1.82-.98v-7.49l1.82,.98,3.05,6.29v-4.64l1.83,.98v7.49Z"/><path d="M781.62,544.78c-.59-.64-1.05-1.35-1.4-2.13-.35-.77-.52-1.53-.52-2.26s.17-1.3,.52-1.7c.35-.4,.81-.6,1.4-.61,.59-.01,1.23,.17,1.94,.55s1.35,.89,1.94,1.54c.59,.64,1.05,1.35,1.39,2.11,.34,.77,.51,1.52,.51,2.25s-.17,1.3-.51,1.7c-.34,.4-.8,.61-1.39,.62-.58,.01-1.23-.17-1.93-.55s-1.35-.89-1.94-1.54Zm3.37,.05c.36-.2,.54-.63,.54-1.29s-.18-1.29-.54-1.88c-.36-.59-.84-1.04-1.44-1.37s-1.09-.39-1.45-.19-.54,.63-.54,1.3,.18,1.29,.54,1.88c.36,.59,.84,1.05,1.45,1.37s1.08,.38,1.44,.18Z"/></g></g></g><g id="k"><g><path class="br" d="M91.59,130.95v-1.48L1.21,181.69h0s-2.72,2.19,0,3.74h0l25.63,14.69s3.19,1.54,6.13,.07l.65-.38h0c.1-.07,.2-.12,.29-.17l21.77-12.56,20.9-18.09,15.01-9.08v-28.97Z"/><g><ellipse class="c`" cx="109.13" cy=".68" rx="1.22" ry=".68"/><path class="aw" d="M109.42,16.13V1.84s2.75-.58,6.68,3.19c3.94,3.77,7.43,8.28,12.18,7.4v14.08s-2.85,.78-5.63-1.56-10.18-9.98-13.23-8.82Z"/><path class="bw" d="M128.85,12.11c-5.32,.21-8.65-4.44-12.59-8.21-3.94-3.77-6.83-2.06-6.83-2.06,0,0,2.75-.58,6.68,3.19,3.94,3.77,7.43,8.28,12.18,7.4l.28-.16,.28-.16Z"/><polygon class="bw" points="128.29 12.43 128.85 12.11 128.85 26.12 128.29 26.51 128.29 12.43"/><polygon class="dg" points="110.34 61.43 110.34 .68 107.91 .68 107.91 62.83 110.34 61.43"/></g><polyline class="cf" points="243.36 184.11 243.36 159.92 319.69 116.35 319.69 139.72 243.36 184.11"/><polyline class="ay" points="111.99 170.95 122.4 164.85 122.9 113.23 111.99 106.81 111.99 170.95"/><polyline class="dc" points="91.59 72.23 243.36 159.92 319.69 116.35 167.48 28.5 91.59 72.23"/><path class="bi" d="M122.9,113.23l-.5,51.62s110.95,66.72,110.95,65.39v-52.01L122.9,113.23"/><polyline class="ct" points="233.35 178.22 243.36 184.11 314.63 142.66 314.63 184.11 233.35 230.23 233.35 178.22 243.36 184.11"/><polygon class="cm" points="117.45 80.91 228.54 145.29 228.54 122.21 117.45 58.64 117.45 80.91"/><polygon class="at" points="228.54 122.21 228.54 145.29 231.63 143.71 231.63 120.4 228.54 122.21"/><polygon class="cu" points="231.63 120.4 228.54 122.21 117.45 58.64 121.13 56.64 231.63 120.4"/><polygon class="cu" points="202.98 160.34 202.98 171.74 154.54 143.34 154.54 131.84 153.01 130.95 153.01 182.89 154.54 184.11 154.54 145.29 178 159.12 177.88 197.52 179.4 198.44 179.52 160.01 202.98 173.84 202.98 212.28 204.51 213.5 204.51 161.23 202.98 160.34"/><polygon class="cu" points="263.8 172.22 263.8 212.95 265.12 212.21 265.12 171.46 263.8 172.22"/><polygon class="cu" points="292.84 155.34 292.84 196.5 294.16 195.76 294.16 154.58 292.84 155.34"/><polyline class="cu" points="228.94 256.57 345.07 188.67 345.07 191.25 228.94 259.41 228.94 256.57"/><polyline class="cu" points="228.93 261.2 346.46 192.23 346.46 194.81 228.93 264.03 228.93 261.2"/><polyline class="b`" points="101.93 185.97 100.09 187.09 228.94 261.19 346.46 192.25 345.07 191.25 228.94 259.41 101.93 185.97"/><polyline class="b`" points="100.09 189.46 98.25 190.58 228.94 265.81 347.86 195.81 346.46 194.81 228.94 264.03 101.93 190.58"/><polyline class="ct" points="81.94 202.58 101.93 183.57 76.58 169 55.68 187.09 81.94 202.58"/><g><ellipse class="c`" cx="22.77" cy="50.27" rx="1.22" ry=".68"/><path class="df" d="M22.77,180.85s-2.49-.07-3.04,2.42c0,0-.17,.62,.52,1.21s2.87,.95,4.71,0-.17-3.69-2.19-3.63Z"/><path class="dg" d="M21.55,50.27V181.65c0,.37,.54,.68,1.22,.68s1.22-.3,1.22-.68V50.27h-2.43Z"/><path class="cw" d="M23.07,65.72v-14.29s2.75-.58,6.68,3.19c3.94,3.77,7.43,8.28,12.18,7.4v14.08s-2.85,.78-5.63-1.56-10.18-9.98-13.23-8.82Z"/><path class="bw" d="M42.49,61.7c-5.32,.21-8.65-4.44-12.59-8.21-3.94-3.77-6.83-2.06-6.83-2.06,0,0,2.75-.58,6.68,3.19,3.94,3.77,7.43,8.28,12.18,7.4l.28-.16,.28-.16Z"/><polygon class="bw" points="41.93 62.02 42.49 61.7 42.49 75.71 41.93 76.1 41.93 62.02"/></g><g><ellipse class="c`" cx="68.79" cy="24.95" rx="1.22" ry=".68"/><path class="df" d="M68.79,155.54s-2.49-.07-3.04,2.42c0,0-.17,.62,.52,1.21s2.87,.95,4.71,0-.17-3.69-2.19-3.63Z"/><path class="dg" d="M67.57,24.95V156.34c0,.37,.54,.68,1.22,.68s1.22-.3,1.22-.68V24.95h-2.43Z"/><path class="bm" d="M69.09,40.41v-14.29s2.75-.58,6.68,3.19,7.43,8.28,12.18,7.4v14.08s-2.85,.78-5.63-1.56-10.18-9.98-13.23-8.82Z"/><path class="bw" d="M88.51,36.39c-5.32,.21-8.65-4.44-12.59-8.21-3.94-3.77-6.83-2.06-6.83-2.06,0,0,2.75-.58,6.68,3.19,3.94,3.77,7.43,8.28,12.18,7.4l.28-.16,.28-.16Z"/><polygon class="bw" points="87.95 36.71 88.51 36.39 88.51 50.4 87.95 50.79 87.95 36.71"/></g><polygon class="cx" points="91.59 72.23 91.59 159.92 111.99 170.95 111.99 106.81 243.36 184.11 243.36 159.92 91.59 72.23"/><polygon class="dg" points="101.93 183.57 228.94 256.57 345.07 188.67 314.63 170.95 314.63 184.11 233.35 230.23 122.4 164.85 111.99 170.95 91.59 159.92 76.58 169 76.59 169 101.93 183.57"/><polygon class="aj" points="101.93 183.57 101.93 185.97 228.94 259.41 228.94 256.57 101.93 183.57"/><polyline class="cu" points="228.94 265.81 347.86 195.8 347.86 198.38 228.94 268.64 228.94 265.81"/><polygon class="aj" points="98.25 190.58 98.25 192.99 228.94 268.64 228.94 265.81 98.25 190.58"/><polygon class="aj" points="100.09 187.09 100.09 189.49 228.94 264.03 228.94 261.19 100.09 187.09"/><polygon class="df" points="98.25 192.99 81.94 202.58 82 202.41 101.93 183.57 101.93 185.97 100.09 187.09 100.09 189.49 98.25 190.58 98.25 192.99"/><g><path class="by" d="M128.51,73.71c.34-.56,.8-.89,1.37-.98,.57-.09,1.22,.07,1.93,.48,.87,.51,1.61,1.24,2.21,2.2,.6,.96,.99,2.03,1.16,3.19l-1.96-1.14c-.13-.49-.33-.91-.59-1.28-.26-.37-.56-.65-.9-.85-.55-.32-1-.33-1.36-.02-.36,.3-.55,.88-.58,1.72s.12,1.61,.44,2.31c.32,.7,.76,1.21,1.31,1.53,.34,.2,.65,.27,.93,.22,.27-.05,.49-.24,.65-.56l1.96,1.14c-.24,.92-.69,1.5-1.33,1.74-.64,.24-1.4,.1-2.27-.4-.71-.41-1.34-.99-1.89-1.73-.55-.74-.96-1.57-1.25-2.49s-.42-1.86-.38-2.81,.22-1.71,.56-2.27Z"/><path class="by" d="M137.65,85.98c-.56-.75-1-1.61-1.31-2.56-.31-.95-.45-1.9-.42-2.84s.23-1.69,.59-2.24c.36-.55,.84-.87,1.43-.96,.59-.09,1.23,.07,1.92,.47s1.31,.98,1.87,1.73c.56,.75,.99,1.6,1.3,2.54,.31,.94,.44,1.88,.41,2.82s-.23,1.69-.59,2.25c-.36,.56-.83,.88-1.42,.97-.59,.09-1.22-.07-1.91-.47s-1.31-.98-1.88-1.73Zm3.38-.36c.37-.31,.57-.88,.6-1.72s-.12-1.63-.46-2.34c-.33-.71-.79-1.24-1.38-1.58s-1.07-.37-1.44-.07c-.37,.3-.57,.88-.6,1.74s.12,1.63,.46,2.34c.33,.71,.8,1.24,1.39,1.58s1.06,.36,1.43,.05Z"/><path class="by" d="M150.83,94.18l-1.79-1.04-2.79-7.67-.2,5.93-1.79-1.04,.33-9.62,1.79,1.04,2.79,7.7,.2-5.96,1.79,1.04-.33,9.62Z"/><path class="by" d="M153.35,95.39c-.42-.48-.75-1.01-.98-1.61s-.35-1.21-.35-1.85l1.9,1.1c.02,.37,.1,.7,.25,.98,.15,.28,.36,.5,.62,.64s.48,.2,.64,.12c.16-.07,.24-.25,.25-.53,0-.24-.05-.47-.16-.7-.12-.23-.26-.44-.44-.64-.17-.2-.42-.46-.75-.78-.47-.47-.85-.88-1.14-1.25-.29-.37-.54-.8-.74-1.3s-.29-1.05-.27-1.65c.03-.89,.3-1.45,.81-1.67s1.16-.1,1.96,.36,1.45,1.1,1.93,1.9c.48,.79,.72,1.65,.72,2.58l-1.93-1.12c0-.32-.08-.61-.24-.88-.15-.27-.36-.48-.61-.63-.22-.13-.39-.15-.53-.08-.14,.07-.21,.25-.22,.54-.01,.31,.09,.62,.31,.92,.22,.3,.56,.69,1.03,1.17,.47,.49,.84,.91,1.13,1.27s.54,.79,.74,1.28c.2,.49,.3,1.02,.28,1.6s-.14,.98-.37,1.31c-.23,.32-.55,.5-.96,.53-.41,.03-.89-.11-1.44-.43s-1.01-.7-1.43-1.18Z"/><path class="by" d="M164.15,92.11l-.06,1.88-1.94-1.13-.26,7.74-1.79-1.04,.26-7.74-1.94-1.13,.06-1.88,5.67,3.29Z"/><path class="by" d="M168.47,104.42l-1.4-4.52-.43-.25-.12,3.63-1.79-1.04,.33-9.62,3,1.74c.58,.34,1.07,.75,1.47,1.26,.4,.5,.69,1.04,.88,1.62,.19,.58,.27,1.15,.25,1.72-.02,.64-.18,1.13-.47,1.47-.29,.34-.71,.46-1.25,.36l1.56,4.79-2.02-1.17Zm-1.77-6.42l1.11,.64c.33,.19,.58,.23,.75,.11,.17-.11,.26-.36,.28-.75s-.06-.7-.22-1.01-.4-.55-.73-.74l-1.11-.64-.08,2.38Z"/><path class="by" d="M173.62,97.61l-.2,5.75c-.02,.58,.07,1.08,.28,1.52,.21,.44,.52,.78,.94,1.02s.74,.27,.98,.09c.23-.18,.36-.56,.38-1.13l.2-5.75,1.79,1.04-.2,5.74c-.03,.86-.19,1.5-.49,1.94-.3,.43-.69,.66-1.17,.69s-1.01-.13-1.59-.46-1.09-.78-1.54-1.35c-.45-.56-.79-1.22-1.04-1.97-.24-.75-.35-1.56-.32-2.42l.2-5.74,1.79,1.04Z"/><path class="by" d="M179.32,103.21c.34-.56,.8-.89,1.37-.98,.57-.09,1.22,.07,1.93,.48,.87,.51,1.61,1.24,2.21,2.2,.6,.96,.99,2.03,1.16,3.19l-1.96-1.14c-.13-.49-.33-.91-.59-1.28-.26-.37-.56-.65-.9-.85-.55-.32-1-.33-1.36-.02-.36,.3-.55,.88-.58,1.72s.12,1.61,.44,2.31c.32,.7,.76,1.21,1.31,1.53,.34,.2,.65,.27,.93,.22,.27-.05,.49-.24,.65-.56l1.96,1.14c-.24,.92-.69,1.5-1.33,1.74-.64,.24-1.4,.1-2.27-.4-.71-.41-1.34-.99-1.89-1.73-.55-.74-.96-1.57-1.25-2.49s-.42-1.86-.38-2.81,.22-1.71,.56-2.27Z"/><path class="by" d="M192.47,108.55l-.06,1.88-1.94-1.13-.26,7.74-1.79-1.04,.26-7.74-1.94-1.13,.06-1.88,5.67,3.29Z"/><path class="by" d="M194.63,119.07c-.56-.75-1-1.61-1.31-2.56-.31-.95-.45-1.9-.42-2.84s.23-1.69,.59-2.24c.36-.55,.84-.87,1.43-.96,.59-.09,1.23,.07,1.92,.47s1.31,.98,1.87,1.73c.56,.75,.99,1.6,1.3,2.54,.31,.94,.44,1.88,.41,2.82s-.23,1.69-.59,2.25c-.36,.56-.83,.88-1.42,.97-.59,.09-1.22-.07-1.91-.47s-1.31-.98-1.88-1.73Zm3.38-.36c.37-.31,.57-.88,.6-1.72s-.12-1.63-.46-2.34c-.33-.71-.79-1.24-1.38-1.58s-1.07-.37-1.44-.07c-.37,.3-.57,.88-.6,1.74s.12,1.63,.46,2.34c.33,.71,.8,1.24,1.39,1.58s1.06,.36,1.43,.05Z"/><path class="by" d="M204.99,125.63l-1.4-4.52-.43-.25-.12,3.63-1.79-1.04,.33-9.62,3,1.74c.58,.34,1.07,.75,1.47,1.26,.4,.5,.69,1.04,.88,1.62,.19,.58,.27,1.15,.25,1.72-.02,.64-.18,1.13-.47,1.47-.29,.34-.71,.46-1.25,.36l1.56,4.79-2.02-1.17Zm-1.77-6.42l1.11,.64c.33,.19,.58,.23,.75,.11,.17-.11,.26-.36,.28-.75s-.06-.7-.22-1.01-.4-.55-.73-.74l-1.11-.64-.08,2.38Z"/><path class="by" d="M212.69,128.37l-2.74-1.59-.5,1.44-1.87-1.09,2.98-8.08,2.07,1.2,2.33,11.16-1.89-1.1-.38-1.95Zm-.4-2.08l-.79-4.05-1.02,3,1.81,1.05Z"/></g></g></g><g id="r"><g><path class="br" d="M798.63,266.06s3.72,2.37,7.85-.06c5.5-3.23,21.32-12.45,21.32-12.45l32.31,18.06s4.09,2.52,8.13,0,79.82-45.66,90.89-51.96l-6.64-3.8-88.28,50.2-36.34-20.54-26.26,14.39-7.4-4.17-7.08,3.88,11.5,6.45Z"/><path class="ca" d="M814.86,8.02l-89.76,51,43.65,23.83-26.5,14.7,59.69,33.19,25.61-14.7,36.3,20.27,89.76-50.56L814.86,8.02Zm12.7,98.22l-25.17,14.48-42.32-23.16,25.39-14.48-43.43-24.5,73.28-41.43,121.38,68.15-72.39,41.43-36.75-20.49Z"/><path class="ca" d="M827.56,106.24l-25.17,14.48-42.32-23.16,25.39-14.48-43.43-24.5,73.28-41.43,121.38,68.15-72.39,41.43-36.75-20.49Z"/><polygon class="cu" points="815.31 17.15 815.31 26.33 750.42 63.31 742.03 58.58 815.31 17.15"/><polygon class="ct" points="815.31 17.15 936.69 85.3 928.66 89.9 815.31 26.33 815.31 17.15"/><polygon class="cu" points="785.46 83.08 760.07 97.55 767.34 101.53 785.46 91.61 785.46 83.08"/><polygon class="dc" points="953.62 85.75 953.62 94.33 864.19 144.78 827.8 124.18 801.61 138.81 742.03 105.5 742.25 97.55 801.94 130.74 827.56 116.04 863.86 136.31 953.62 85.75"/><polygon class="dc" points="725.1 59.02 768.76 82.85 761.66 86.79 725.1 66.56 725.1 59.02"/><polygon class="bn" points="743.7 106.43 801.61 138.81 801.61 259.92 743.1 226.96 743.7 106.43"/><polygon class="ca" points="761.66 86.79 726.52 67.34 726.52 188.36 743.24 197.88 743.7 106.43 742.03 105.5 742.25 97.55 761.66 86.79"/><path class="br" d="M743.24,197.88l-.04,7.94-28.89-16.26s-2.66-1.07,.41-2.92l11.8-7.1v8.83l16.73,9.52"/><polygon class="bu" points="801.61 138.81 827.8 124.18 827.8 245.46 801.61 259.92 801.61 138.81"/><polygon class="ca" points="864.19 144.78 827.8 124.18 827.8 245.46 864.19 266.01 864.19 144.78"/><polygon class="cj" points="864.19 144.78 952.48 94.97 952.48 215.85 864.19 266.01 864.19 144.78"/><polygon class="cl" points="754.67 90.73 737.66 81.23 737.66 174.34 744.06 177.84 744.3 106.34 742.63 105.4 742.85 97.46 754.67 90.73"/><polygon class="ay" points="737.66 81.18 734.66 79.58 734.86 175.3 737.66 174.3 737.66 81.18"/><polygon class="dc" points="744.09 177.75 737.69 174.25 734.89 175.25 743.95 180.45 744.09 177.75"/><polygon class="ah" points="737.66 81.23 737.66 174.34 744.06 177.84 744.06 176.84 738.55 173.75 738.51 155.73 744.13 158.56 744.13 157.32 738.44 154.45 738.51 136.21 744.15 139.33 744.08 137.95 738.51 134.9 738.58 116.87 744.15 120.03 744.15 118.82 738.55 115.52 738.51 97.92 742.77 100.33 742.8 99.09 738.44 96.68 738.53 81.71 737.66 81.23"/><polygon class="ay" points="750.39 231.07 750.79 176.42 756.03 179.53 756.03 227.89 750.39 231.07"/><polygon class="ar" points="756.03 179.53 794.2 200.69 794.2 249.14 756.03 227.89 756.03 179.53"/><polygon class="be" points="756.03 179.53 756.03 227.89 794.2 249.14 794.2 248.05 776.3 238.05 776.36 190.8 775.12 190.11 775.12 237.3 757.23 227.16 757.25 180.2 756.03 179.53"/><ellipse class="am" cx="771.16" cy="216.12" rx=".98" ry="1.5" transform="translate(22.92 501.66) rotate(-36.54)"/><ellipse class="am" cx="771.16" cy="207.66" rx=".98" ry="1.5" transform="translate(27.96 500) rotate(-36.54)"/><ellipse class="am" cx="782.09" cy="222.06" rx=".98" ry="1.5" transform="translate(21.53 509.34) rotate(-36.54)"/><ellipse class="am" cx="782.09" cy="213.6" rx=".98" ry="1.5" transform="translate(26.57 507.68) rotate(-36.54)"/><path class="cg" d="M771.66,215.87c-.24-.36-.73-.47-1.09-.23l-.27,.18v-6.75l1.04-.68c.36-.24,.47-.73,.23-1.09-.24-.36-.73-.47-1.09-.23l-1.4,.91c-.05,.03-.08,.08-.13,.12h0c-.06,.06-.1,.12-.14,.19-.02,.04-.04,.08-.05,.12,0,.03-.02,.05-.03,.08-.01,.05-.02,.11-.02,.16v8.55c0,.43,.35,.79,.79,.79,.04,0,.07,0,.11-.01,.14,0,.29-.03,.41-.11l1.4-.91c.36-.24,.47-.73,.23-1.09Z"/><path class="cg" d="M782.57,222.06c-.24-.36-.73-.47-1.09-.23l-.27,.18v-6.75l1.04-.68c.36-.24,.47-.73,.23-1.09-.24-.36-.73-.47-1.09-.23l-1.4,.91c-.05,.03-.08,.08-.13,.12h0c-.06,.06-.1,.12-.14,.19-.02,.04-.04,.08-.05,.12,0,.03-.02,.05-.03,.08-.01,.05-.02,.11-.02,.16v8.55c0,.43,.35,.79,.79,.79,.04,0,.07,0,.11-.01,.14,0,.29-.03,.41-.11l1.4-.91c.36-.24,.47-.73,.23-1.09Z"/><polygon class="ba" points="808.06 143.01 818.49 137.28 818.64 230.35 808.06 236.61 808.06 143.01"/><polygon class="bo" points="818.64 230.35 821.43 232.21 821.8 135.07 818.49 137.28 818.64 230.35"/><polygon class="dc" points="821.43 232.21 818.64 230.35 808.06 236.61 808.06 240.49 821.43 232.21"/><polygon class="bd" points="818.49 137.28 817.5 137.82 817.5 152.64 808.06 158.07 808.06 159.47 817.61 154 817.53 172.16 808.06 177.63 808.06 178.99 817.61 173.56 817.65 191.45 808.06 196.68 808.06 197.92 817.57 192.73 817.61 210.45 808.06 216.08 808.06 217.4 817.61 211.85 817.61 229.68 808.06 235.21 808.06 236.61 818.64 230.35 818.49 137.28"/><polygon class="cr" points="855.77 148.18 838.64 138.28 838.54 231.33 856.16 241.13 855.77 148.18"/><polygon class="bo" points="838.64 138.28 835.67 136.79 835.77 232.81 838.54 231.33 838.64 138.28"/><polygon class="dc" points="856.16 244.29 856.16 241.13 838.54 231.33 835.77 232.81 856.16 244.29"/><path class="ch" d="M838.64,138.28l.99,.57,.17,15.17,16.37,8.92v1.41l-16.53-9.09v18.01l16.28,8.92v1.29l-16.28-9.09v17.65l16.37,9.37v1.45l-16.37-9.33v18.21l16.45,8.72s.21,1.57,0,1.57-16.45-9-16.45-9v17.73l16.53,9.13v1.24l-17.61-9.8,.1-93.05Z"/><polygon class="av" points="928.24 141.7 928.24 181.53 888.23 204.11 888.23 164.28 928.24 141.7"/><polygon class="ay" points="928.24 141.7 931.13 140.18 931.13 182.9 928.24 181.53 928.24 141.7"/><polygon class="cu" points="888.23 204.11 928.24 181.53 931.13 182.9 888.23 207.88 888.23 204.11"/><path class="bg" d="M927.24,142.27v19.27l-18.76,10.62v-19.3l-1.25,.61v19.44l-18.99,10.65v1.48l18.99-10.69,.18,17.96-19.17,10.75v1.07l40.01-22.58v-39.83l-1,.57Zm.07,38.63l-18.66,10.51v-17.9l18.66-10.17v17.55Z"/><polygon class="dc" points="875.77 239.69 897.78 226.79 900.7 228.33 875.77 243.17 875.77 239.69"/><g><path class="ar" d="M835.95,58l-25.52,14.26,25.45,14.44,25.45-14.44-25.38-14.26Zm-21.17,14.28l21.16-11.83,21.05,11.83-21.11,11.98-21.11-11.98Z"/><polygon class="ck" points="835.88 86.71 810.43 72.27 810.43 76.34 835.88 90.87 861.33 76.03 861.33 72.27 835.88 86.71"/><polygon class="bv" points="835.88 90.87 835.88 94.72 810.43 80.42 810.43 76.34 835.88 90.87"/><polygon class="ci" points="861.33 76.03 861.33 80.37 835.88 94.72 835.88 90.87 861.33 76.03"/><polygon class="bv" points="835.88 84.26 821.79 76.34 835.88 68.54 850.07 76.2 835.88 84.26"/><polygon class="bu" points="835.93 60.45 835.88 68.54 821.79 76.34 814.77 72.28 835.93 60.45"/><polygon class="ca" points="835.93 60.45 856.99 72.28 850.07 76.2 835.88 68.54 835.93 60.45"/><path class="dh" d="M835.63,68.92s5.04-3.7,10.37-2.58l-4.95,3.32s5.93,0,10.02,2.52h-8.86s3.5,1.54,4.39,5.9l-6.16-3.26s.09,4.62-4.8,5.95v-4.71s-4.15,2.87-9.6,2.28l5.51-3.65s-5.99,1.51-10.11-2.16l7.11-.27s-4-1.24-3.44-5.48l6.02,3.62s-.21-4.77,4.5-6.46v4.98Z"/><ellipse class="au" cx="835.88" cy="70.88" rx="2.2" ry=".86"/><path class="bv" d="M833.68,70.88v1.48s.41,.83,2.05,.91,2.34-1.09,2.34-1.09v-1.3s-.12,.9-2.31,.86c-1.96-.04-2.08-.86-2.08-.86Z"/><path class="ar" d="M833.68,77.09l.15,6.02,2.05,1.15,2.26-1.28v-3.45s-.11,.62-2.52,1.24v-4.71s-1.42,.82-1.94,1.03Z"/></g><g><path class="by" d="M754.55,150.49c.35,.69,.52,1.34,.52,1.97,0,.91-.3,1.46-.89,1.67-.59,.21-1.41,.02-2.45-.56l-4.67-2.59,.08-10.86,4.51,2.5c1.02,.57,1.81,1.26,2.38,2.08,.57,.82,.85,1.67,.85,2.54,0,.64-.16,1.08-.48,1.34s-.73,.32-1.24,.2c.58,.46,1.04,1.03,1.39,1.71Zm-5.01-4.62l1.6,.89c.4,.22,.71,.3,.92,.22,.22-.07,.32-.29,.33-.66s-.1-.71-.32-1.03c-.21-.31-.52-.58-.92-.81l-1.6-.89-.02,2.27Zm2.72,5.55c.22-.08,.34-.31,.34-.69s-.11-.75-.34-1.09c-.23-.35-.55-.63-.96-.86l-1.77-.98-.02,2.4,1.8,1c.41,.23,.73,.3,.95,.23Z"/><path class="by" d="M762.71,157.75l-3.74-2.08-.61,1.59-2.55-1.42,3.7-8.85,2.83,1.57,3.55,12.87-2.58-1.43-.59-2.25Zm-.61-2.39l-1.21-4.66-1.25,3.29,2.47,1.37Z"/><path class="by" d="M775.94,167.02l-2.44-1.35-4.03-8.96-.05,6.7-2.44-1.35,.08-10.86,2.44,1.35,4.03,8.99,.05-6.73,2.44,1.35-.08,10.86Z"/><path class="by" d="M777.99,159.81c.43-.6,1.04-.93,1.8-.97,.77-.04,1.64,.2,2.61,.74,1.19,.66,2.2,1.57,3.05,2.72s1.4,2.39,1.68,3.73l-2.68-1.49c-.2-.56-.48-1.07-.84-1.51-.36-.44-.78-.79-1.25-1.05-.75-.42-1.36-.47-1.83-.16-.47,.31-.71,.94-.72,1.89s.22,1.84,.68,2.66c.46,.83,1.07,1.45,1.82,1.86,.47,.26,.88,.37,1.25,.34,.37-.03,.65-.22,.86-.56l2.68,1.49c-.29,1.02-.87,1.63-1.72,1.83-.85,.21-1.87-.02-3.06-.68-.97-.54-1.84-1.26-2.6-2.15-.76-.89-1.35-1.88-1.78-2.95-.42-1.07-.63-2.15-.62-3.22s.23-1.91,.66-2.51Z"/><path class="by" d="M790.73,174.62c-.78-.91-1.4-1.92-1.86-3.03s-.68-2.19-.67-3.25,.24-1.89,.71-2.48c.47-.59,1.09-.9,1.88-.94,.79-.04,1.65,.2,2.59,.73s1.8,1.24,2.58,2.15c.78,.91,1.4,1.91,1.84,3.01,.45,1.1,.67,2.18,.66,3.24s-.24,1.89-.7,2.49-1.09,.92-1.87,.96c-.78,.04-1.65-.2-2.59-.72s-1.8-1.24-2.58-2.15Zm4.53-.06c.48-.31,.73-.94,.74-1.89s-.23-1.86-.7-2.7-1.11-1.48-1.91-1.92-1.46-.52-1.94-.22-.73,.94-.74,1.9,.23,1.86,.7,2.7,1.12,1.48,1.93,1.93,1.44,.51,1.92,.2Z"/></g><polygon class="cu" points="864.19 144.78 863.86 136.31 953.62 85.75 953.62 94.33 864.19 144.78"/><polygon class="cu" points="827.56 116.04 827.8 124.18 801.61 138.81 801.94 130.74 827.56 116.04"/><path class="br" d="M750.39,231.07l-7.29,3.8-14.86-8.36s-5.03-2.46-.66-5.29,15.52-9.61,15.52-9.61v15.36l7.29,4.11Z"/><polygon class="dg" points="743.1 234.86 756.03 227.89 794.2 249.14 794.21 255.74 787.13 259.62 743.1 234.86"/></g></g><g id="ab"><g><path class="dc" d="M512.08,469.07h-.02c-3.55-.01-7.75-.92-12.38-3.65-13.97-8.22-134.77-78.5-134.77-78.5,.86,6.58,4.68,9.04,4.68,9.04,0,0,122.07,70.49,131.73,76.24,9.66,5.75,21.37,0,21.37,0,0,0,127-73.57,131.73-76.65,4.73-3.08,4.8-7.81,4.8-7.81l-135.51,77.68s-4.5,3.66-11.64,3.65Z"/><path class="al" d="M370.39,281.84l132.14-75.43s7.4-4.12,16.03,0,134.4,76.87,134.4,76.87c0,0,11.1,5.56,2.67,11.54s-132.14,77.7-132.14,77.7c0,0-13.77,6.39-26.92-1.85-13.15-8.24-127.83-74.19-127.83-74.19,0,0-10.63-7.63,1.64-14.63Z"/><path class="cn" d="M364.91,294.65l136.7,77.37s13.82,6.61,24.33,.14c9.81-6.04,133.29-78.53,133.29-78.53v94.12l-135.51,77.68s-10.07,8.22-24.04,0c-13.97-8.22-134.77-78.5-134.77-78.5v-92.27Z"/><path class="cc" d="M428.6,405.05l-63.52-37.47c-.06-.04-.12-.05-.17-.09v7.13c.06,.04,.11,.08,.17,.12l63.52,37.47c2.15,1.27,3.9,.69,3.9-1.28s-1.76-4.62-3.9-5.88Z"/><g><g><path class="co" d="M505.06,295.56c-18.33-10.58-19.02-27.27-1.55-37.2,6.64-3.77,15.12-6.15,24.54-6.88,1.33-.1,2.61,.43,2.86,1.2,.25,.77-.61,1.47-1.94,1.58-8.41,.66-15.99,2.78-21.92,6.15-15.62,8.87-15,23.78,1.38,33.24,16.38,9.46,42.4,9.94,58.02,1.07,5.93-3.37,9.71-7.69,10.92-12.5,.19-.76,1.43-1.25,2.77-1.1,1.34,.15,2.27,.89,2.07,1.65-1.36,5.39-5.59,10.23-12.22,14-17.48,9.93-46.61,9.39-64.94-1.19Z"/><path class="co" d="M543.9,303.32c-.55-.32-.85-.77-.73-1.24,.19-.76,1.43-1.25,2.77-1.1l9.17,1.04c7.29,.71,14.66-.58,19.72-3.45l7.44-4.23c.95-.54,1.3-1.29,.98-2.06-.31-.73-1.15-1.32-2.34-1.63l-4.54-.48c-1.34-.14-2.29-.87-2.12-1.63,.17-.76,1.4-1.26,2.74-1.12l5.07,.53,.24,.05c2.86,.65,5,2.06,5.71,3.77,.72,1.7-.1,3.43-2.19,4.62l-7.44,4.23c-6.12,3.48-15.04,5.04-23.86,4.17h-.06l-9.2-1.05c-.52-.06-.98-.21-1.34-.41Z"/><path class="co" d="M498.28,299.41c-7.66-4.42-14.3-8.92-18.7-12.66-5.34-4.54-6.68-7.31-4.2-8.72,2.85-1.62,8.38,.02,12.29,1.4,1.18,.41,1.6,1.28,.94,1.93-.66,.65-2.15,.85-3.33,.43-3.66-1.28-5.46-1.56-6.2-1.62,.15,.67,1.26,2.47,5.42,5.86,4.21,3.43,10.29,7.49,17.14,11.45,6.85,3.96,13.9,7.48,19.85,9.91,5.89,2.41,9.02,3.07,10.19,3.15-.09-.43-.57-1.47-2.82-3.6-.72-.68-.37-1.53,.78-1.9,1.15-.37,2.65-.13,3.37,.55,2.39,2.27,5.25,5.47,2.38,7.09-2.48,1.41-7.3,.62-15.19-2.48-6.49-2.55-14.29-6.39-21.94-10.81Zm33.43,11.39h0Z"/><g><g><path class="br" d="M511.14,282.3c-.74-.43-.99-1.08-.52-1.63,.58-.68,2.03-.93,3.26-.56,1,.3,2.03,.54,3.08,.71,1.1,.18,2.23,.28,3.37,.31,2.12,.05,4.2-.15,6.19-.62,1.29-.3,2.51-.7,3.62-1.19,.38-.17,.72-.33,1.06-.51,.96-.51,2.51-.45,3.46,.12,.95,.58,.94,1.47-.02,1.98-.44,.23-.89,.45-1.39,.67-1.43,.63-3,1.14-4.66,1.53-2.62,.61-5.37,.88-8.19,.81-1.52-.04-3.04-.18-4.51-.42-1.39-.22-2.76-.54-4.08-.94-.24-.07-.46-.17-.64-.27Z"/><path class="br" d="M505.51,279.84l-.03-.02c-1.54-.92-2.44-1.68-2.68-1.89-.75-.67-.45-1.53,.67-1.92s2.64-.17,3.39,.49c.08,.07,.78,.68,2.05,1.44,.96,.57,.97,1.46,.02,1.98-.94,.51-2.47,.48-3.43-.08Z"/></g><path class="br" d="M540.16,296.95c-.22-.13-.41-.28-.55-.46-.55-.72,0-1.53,1.24-1.81,3.56-.79,6.72-1.94,9.39-3.39,1.95-1.06,5.99-3.27,7.42-7.04,.87-2.31,.36-4.23,.14-5.05-.21-.77,.71-1.46,2.04-1.53,1.33-.08,2.58,.49,2.79,1.26,.26,.97,.87,3.25-.19,6.06-1.72,4.55-6.63,7.23-8.72,8.38-3.1,1.69-6.76,3.01-10.87,3.93-.93,.21-1.99,.05-2.68-.35Z"/><path class="br" d="M518.47,265.95c-.22-.13-.4-.28-.54-.45-.56-.72-.02-1.53,1.21-1.81,2.55-.58,5.41-.96,8.26-1.08,2.5-.11,6.45-.08,11.08,.7,3.75,.63,7.65,1.77,10.97,3.21,3.72,1.61,6.17,3.32,7.57,4.46,.79,.65,.55,1.52-.54,1.94-1.09,.42-2.62,.23-3.42-.42-.96-.79-3.08-2.33-6.42-3.78-3.82-1.65-7.46-2.42-9.3-2.73-3.9-.66-7.21-.68-9.3-.59-2.39,.1-4.77,.42-6.88,.9-.94,.21-2,.06-2.7-.35Z"/><path class="br" d="M509.55,269.61c-.8-.46-1-1.18-.43-1.73,.52-.5,1.11-.89,1.97-1.33,.98-.5,2.53-.42,3.46,.17,.93,.59,.88,1.48-.11,1.97-.51,.26-.81,.45-1.09,.72-.68,.65-2.18,.83-3.34,.4-.17-.06-.32-.13-.46-.21Z"/><path class="br" d="M511.22,276.41c-1.47-.85-2.59-1.9-3.21-3.05-.4-.75,.32-1.51,1.61-1.7,1.29-.19,2.66,.27,3.06,1.02,.72,1.36,2.7,2.5,5.03,2.91,1.83,.32,3.87,.18,5.76-.39,.58-.18,.77-.29,1.09-.48,.42-.25,.99-.59,2.18-.92,2.61-.73,5.82-.83,8.82-.27,1.3,.24,2.08,1.04,1.72,1.77-.35,.73-1.7,1.13-3,.89-1.77-.33-3.71-.28-5.2,.14-.46,.13-.59,.21-.9,.39-.42,.25-1,.6-2.21,.97-3,.92-6.36,1.13-9.45,.58-2.01-.36-3.82-1-5.29-1.85Z"/><path class="br" d="M539.83,279.54c-.28-.16-.49-.35-.62-.58-.24-.4-.59-.79-1.03-1.14-.82-.64-.61-1.51,.46-1.95,1.07-.43,2.61-.27,3.43,.37,.77,.6,1.36,1.26,1.77,1.95,.44,.75-.24,1.52-1.52,1.73-.89,.15-1.84-.02-2.48-.39Z"/><path class="br" d="M505.99,286.11c-.79-.46-1-1.16-.45-1.71,.66-.65,2.15-.85,3.33-.43,3.16,1.11,8.23,2.41,14.42,2.3,1.97-.04,5.88-.28,9.93-1.5,2.49-.75,4.85-1.46,5.85-2.96,.47-.71,1.88-1.03,3.15-.72,1.26,.31,1.91,1.14,1.43,1.85-1.61,2.41-5.13,3.47-7.96,4.33-4.87,1.47-9.59,1.77-11.97,1.81-7.43,.13-13.47-1.41-17.23-2.73-.18-.06-.35-.14-.5-.23Z"/><path class="br" d="M520.27,293.73c-.48-.28-.77-.65-.76-1.06,.02-.77,1.13-1.35,2.48-1.3,3.04,.12,6.04,0,8.9-.36,1.3-.16,2.65,.32,3.01,1.07,.36,.76-.4,1.5-1.71,1.67-3.31,.42-6.77,.56-10.28,.41-.64-.03-1.22-.19-1.65-.44Z"/><path class="br" d="M536.78,291.97c-.18-.1-.34-.22-.46-.36-.65-.7-.21-1.54,.98-1.87,1.3-.36,2.51-.77,3.62-1.22,2.1-.85,4.27-1.72,5.9-3.38,.81-.83,1.81-2.18,1.95-3.92,.04-.55,.04-2.52-1.83-4.73-1.38-1.63-3.2-2.74-4.48-3.38-1.86-.93-4.07-1.65-6.38-2.07-3.68-.67-6.71-.46-7.85-.34-3.55,.38-6.02,1.4-7.46,2.19-.95,.52-2.5,.47-3.46-.09-.96-.57-.98-1.46-.03-1.98,1.89-1.04,5.13-2.38,9.81-2.88,1.49-.16,5.48-.43,10.24,.44,2.99,.54,5.83,1.47,8.24,2.67,1.65,.83,3.99,2.25,5.76,4.34,2.32,2.75,2.41,5.19,2.33,6.11-.18,2.27-1.48,4.03-2.54,5.11-2.13,2.17-4.96,3.31-7.24,4.23-1.3,.53-2.73,1.01-4.24,1.43-.96,.27-2.11,.12-2.86-.31Z"/><path class="br" d="M523,259.43c-.36-.21-.61-.47-.71-.77-.25-.77,.62-1.47,1.94-1.57,5.47-.42,10.97-.19,16.36,.7,1.32,.22,2.13,1,1.83,1.74-.31,.74-1.62,1.17-2.94,.95-4.71-.78-9.53-.99-14.33-.62-.81,.06-1.6-.11-2.15-.43Z"/><path class="br" d="M546.47,262.08c-.76-.44-.99-1.11-.5-1.66,.61-.67,2.08-.9,3.28-.52,.74,.24,1.49,.49,2.21,.75,1.17,.42,1.57,1.29,.89,1.94-.68,.65-2.17,.83-3.34,.4-.64-.23-1.3-.46-1.96-.67-.22-.07-.42-.16-.59-.26Z"/><path class="br" d="M568.09,285.58c-.54-.31-.84-.76-.74-1.21,.63-2.79,.58-7.08-3.19-11.7-.98-1.2-3.87-4.31-9.52-7.23-1.03-.53-1.16-1.42-.29-1.98,.87-.56,2.42-.59,3.45-.05,6.14,3.17,9.39,6.49,10.78,8.19,4.29,5.25,4.35,10.12,3.64,13.28-.17,.76-1.4,1.26-2.74,1.12-.54-.06-1.01-.21-1.38-.42Z"/><path class="br" d="M544.03,255.68c-.63-.36-.92-.9-.67-1.41,.36-.73,1.7-1.13,3.01-.88,4.25,.8,8.3,1.93,12.05,3.34,3.28,1.24,6.29,2.67,8.95,4.27,1.52,.91,2.95,1.89,4.24,2.91,.82,.64,.61,1.51-.47,1.95-1.08,.43-2.61,.26-3.43-.38-1.16-.91-2.44-1.79-3.8-2.61-2.38-1.43-5.08-2.72-8.02-3.83-3.37-1.27-7.01-2.28-10.83-3-.4-.08-.76-.21-1.04-.37Z"/><path class="br" d="M574.89,273.5c-.29-.17-.51-.37-.64-.61-.63-1.15-1.41-2.28-2.31-3.36-.6-.71-.1-1.54,1.12-1.84,1.21-.3,2.68,.03,3.27,.74,1.01,1.21,1.88,2.48,2.58,3.76,.41,.75-.3,1.51-1.59,1.71-.88,.13-1.81-.04-2.43-.4Z"/></g></g><g><g><path class="d`" d="M452.83,282.09l-3.54,2.01-5.13-2.96-15.02,8.53-4.78-2.76,15.02-8.53-5.31-3.07,3.54-2.01,15.23,8.79Z"/><path class="d`" d="M458.02,290.27c1.47,.23,2.74,.67,3.83,1.29l-4.89,2.78-1.36-.78c-1.25-.72-2.49-1.14-3.69-1.25-1.21-.11-2.43,.19-3.65,.89l-6.57,3.73-4.78-2.76,14.69-8.34,4.78,2.76-2.8,1.59c1.5-.17,2.98-.15,4.45,.09Z"/><path class="d`" d="M472.3,298.44c.35,.79,.3,1.55-.17,2.29l2.66-1.51,4.78,2.76-14.69,8.34-4.78-2.76,2.66-1.51c-1.29,.26-2.62,.29-3.99,.08-1.37-.21-2.66-.66-3.86-1.35-1.29-.75-2.15-1.59-2.56-2.52-.42-.93-.35-1.89,.2-2.88,.55-.99,1.59-1.92,3.11-2.78s3.18-1.47,4.9-1.77,3.4-.33,5.02-.08c1.63,.25,3.09,.74,4.38,1.49,1.2,.69,1.98,1.43,2.33,2.22Zm-8.01,.19c-1.25,0-2.44,.32-3.56,.96s-1.69,1.31-1.71,2.03c-.02,.72,.48,1.37,1.5,1.95s2.13,.86,3.42,.86c1.28,0,2.47-.31,3.56-.93s1.66-1.31,1.67-2.04c0-.73-.49-1.38-1.48-1.96s-2.14-.88-3.39-.87Z"/><path class="d`" d="M506.35,319.17c-.02,1.26-1.03,2.46-3.01,3.58l-8.53,4.84-4.6-2.66,8.01-4.55c.93-.53,1.39-1.09,1.38-1.69-.01-.6-.47-1.16-1.38-1.69s-1.97-.82-3.07-.82c-1.1,0-2.15,.28-3.15,.85l-7.8,4.43-4.78-2.76,8.01-4.55c.93-.53,1.4-1.09,1.42-1.67,.01-.59-.42-1.13-1.31-1.64s-1.92-.8-3.01-.8c-1.09,0-2.14,.28-3.16,.86l-7.8,4.43-4.78-2.76,14.69-8.34,4.6,2.66-2.5,1.42c1.23-.23,2.5-.24,3.82-.03,1.31,.22,2.53,.65,3.66,1.3s1.97,1.43,2.36,2.25c.39,.82,.33,1.63-.17,2.45,1.45-.21,2.91-.2,4.39,.03,1.48,.23,2.78,.67,3.91,1.32,1.9,1.1,2.84,2.28,2.82,3.54Z"/><path class="d`" d="M519.31,318.32c.96,.04,1.87,.31,2.72,.8s1.3,1.01,1.37,1.56c.07,.55-.24,1.02-.93,1.41s-1.48,.55-2.45,.5c-.96-.04-1.87-.31-2.72-.8s-1.3-1.01-1.37-1.56c-.07-.55,.23-1.02,.9-1.4s1.51-.56,2.47-.52Zm-1.32,5.85l-14.69,8.34-4.78-2.76,14.69-8.34,4.78,2.76Z"/><path class="d`" d="M519.41,337.55l-3.71,2.11-2.11-1.22c-1.79-1.03-2.76-2.08-2.91-3.14-.15-1.06,.77-2.15,2.73-3.26l5.3-3.01-2.12-1.23,3.71-2.11,2.12,1.23,3.71-2.11,4.78,2.76-3.71,2.11,3.01,1.74-3.71,2.11-3.01-1.74-5.52,3.14c-.58,.33-.87,.63-.86,.9,0,.27,.3,.57,.87,.9l1.44,.83Z"/><path class="d`" d="M539.78,330.14c.96,.04,1.87,.31,2.72,.8s1.3,1.01,1.37,1.56c.07,.55-.24,1.02-.93,1.41s-1.48,.55-2.45,.5c-.96-.04-1.87-.31-2.72-.8s-1.3-1.01-1.37-1.56c-.07-.55,.23-1.02,.9-1.4s1.51-.56,2.47-.52Zm-1.43,5.78l-14.69,8.34-4.78-2.76,14.69-8.34,4.78,2.76Z"/></g><g><path class="br" d="M474.47,322.81l-.61-.35-2.7,1.53,.61,.35c.47,.27,.95,.42,1.45,.43,.49,.01,.95-.1,1.38-.34s.63-.51,.61-.79c-.02-.28-.27-.56-.74-.83Z"/><path class="br" d="M448.35,307.82c-.09-.18-.26-.34-.52-.49s-.55-.25-.86-.3c-.31-.05-.63-.05-.95,0-.32,.06-.62,.16-.91,.32s-.47,.33-.57,.52c-.1,.18-.11,.37-.02,.54,.09,.18,.26,.34,.52,.49s.55,.25,.86,.3c.31,.05,.63,.05,.95,0,.32-.06,.62-.16,.91-.32s.47-.33,.57-.52c.1-.18,.11-.37,.02-.54Z"/><path class="br" d="M516.53,343.23l-95.23-54.99c-2.73-1.57-7.08-1.65-9.68-.18h0c-2.6,1.48-2.5,3.97,.23,5.55l95.23,54.99c2.73,1.57,7.08,1.65,9.68,.18h0c2.6-1.48,2.5-3.97-.23-5.55Zm-95.79-51.64l-1.24-.72-3.54,2.01-.89-.51,3.54-2.01-1.24-.72,.68-.38,3.36,1.94-.68,.38Zm.04,4.08l.63-1.57-.4-.23-1.69,.96-.89-.51,4.22-2.4,1.69,.98c.51,.3,.79,.59,.82,.88,.03,.29-.15,.55-.54,.77-.32,.18-.68,.28-1.08,.29-.4,.01-.81-.06-1.24-.22l-.58,1.6-.94-.54Zm5.33,3.08l.54-.66-1.76-1.02-1.16,.3-.97-.56,5.87-1.44,1.02,.59-2.58,3.35-.97-.56Zm5.95,3.44l-.85-.49,.89-2.78-2.87,1.63-.89-.51,4.22-2.4,.85,.49-.91,2.79,2.89-1.64,.89,.51-4.22,2.4Zm4.99,2.28c-.29,.04-.6,.02-.93-.04-.33-.06-.65-.19-.96-.37s-.54-.37-.68-.57c-.14-.2-.19-.39-.15-.59,.04-.19,.18-.37,.41-.52l.93,.54c-.15,.11-.22,.23-.21,.36,0,.13,.12,.26,.32,.38,.18,.11,.37,.16,.56,.16s.36-.04,.5-.12c.13-.07,.2-.16,.2-.25,0-.09-.03-.19-.09-.29-.07-.1-.17-.23-.32-.39-.19-.21-.32-.38-.41-.53-.09-.15-.11-.3-.07-.47,.04-.16,.19-.32,.45-.47,.36-.2,.78-.29,1.25-.25,.48,.04,.94,.19,1.39,.45s.73,.54,.79,.82c.06,.28-.07,.53-.38,.75l-.94-.54c.13-.1,.18-.21,.17-.32-.01-.12-.11-.23-.3-.34-.16-.09-.33-.15-.51-.16-.18-.01-.35,.03-.5,.11-.12,.07-.19,.15-.19,.24,0,.09,.03,.18,.09,.28s.17,.22,.31,.37c.19,.22,.33,.4,.42,.55,.09,.15,.12,.31,.08,.47-.04,.17-.2,.32-.46,.48-.21,.12-.46,.2-.76,.24Zm7.41,.82l-1.95-1.12-1.18,.67,1.59,.92-.68,.38-1.59-.92-1.69,.96-.89-.51,4.22-2.4,2.83,1.64-.68,.38Zm2.79,4.59c-.53,.08-1.06,.07-1.58-.02-.52-.09-1-.26-1.41-.5s-.7-.51-.86-.81c-.15-.3-.16-.6-.03-.91,.14-.3,.42-.57,.83-.81s.89-.39,1.42-.47c.53-.08,1.05-.07,1.58,.02,.52,.09,1,.26,1.41,.5s.7,.51,.86,.81c.15,.3,.16,.6,.03,.9s-.41,.57-.83,.81-.89,.39-1.42,.47Zm3.1,2.87l.63-1.57-.4-.23-1.69,.96-.89-.51,4.22-2.4,1.69,.98c.51,.3,.79,.59,.82,.88,.03,.29-.15,.55-.54,.77-.32,.18-.68,.28-1.08,.29-.4,.01-.81-.06-1.24-.22l-.58,1.6-.94-.54Zm7.21,4.17l-.89-.51,2.94-1.67-4.06,1.02-.76-.44,1.8-2.31-2.92,1.66-.89-.51,4.22-2.4,1.07,.62-1.84,2.57,4.48-1.05,1.07,.62-4.22,2.4Zm4.52,2.61l.54-.66-1.76-1.02-1.16,.3-.97-.56,5.87-1.44,1.02,.59-2.58,3.35-.97-.56Zm5.93,3.42l-.85-.49,.89-2.78-2.87,1.63-.89-.51,4.22-2.4,.85,.49-.91,2.79,2.89-1.64,.89,.51-4.22,2.4Zm6.22,2.44c-.5,.07-1.02,.06-1.54-.04-.53-.1-1.03-.29-1.51-.57l-1.57-.91,4.22-2.4,1.57,.91c.48,.28,.81,.57,.98,.87,.18,.3,.2,.59,.06,.88-.13,.29-.41,.55-.83,.79s-.88,.39-1.38,.47Zm5.73,3.38c-.53,.08-1.06,.07-1.58-.02-.52-.09-1-.26-1.41-.5s-.7-.51-.86-.81c-.15-.3-.16-.6-.03-.91,.14-.3,.42-.57,.83-.81s.89-.39,1.42-.47c.53-.08,1.05-.07,1.58,.02,.52,.09,1,.26,1.41,.5s.7,.51,.86,.81c.15,.3,.16,.6,.03,.9s-.41,.57-.83,.81-.89,.39-1.42,.47Zm6.6,3.51c-.41,.23-.85,.35-1.31,.34s-.91-.13-1.32-.37c-.45-.26-.68-.54-.7-.83-.01-.29,.21-.57,.68-.84l.87,.5c-.22,.12-.34,.25-.36,.37-.02,.12,.06,.23,.24,.34,.17,.1,.34,.14,.51,.13,.17,0,.34-.06,.51-.15l3.02-1.71,.89,.51-3.02,1.71Zm5.65,2.67c-.39,.22-.8,.37-1.23,.43-.42,.07-.84,.06-1.24-.02-.4-.08-.78-.22-1.12-.42-.53-.31-.81-.64-.82-1-.01-.36,.28-.7,.87-1.04l2.5-1.42,.89,.51-2.5,1.42c-.33,.19-.51,.38-.52,.56-.01,.18,.12,.36,.41,.52s.58,.24,.9,.24c.32,0,.65-.1,.98-.29l2.5-1.42,.89,.51-2.5,1.42Zm3.59,4.05l-.85-.49,.89-2.78-2.87,1.63-.89-.51,4.22-2.4,.85,.49-.91,2.79,2.89-1.64,.89,.51-4.22,2.4Zm8.15,.64l-1.24-.72-3.54,2.01-.89-.51,3.54-2.01-1.24-.72,.68-.38,3.36,1.94-.68,.38Zm2.69,4.53c-.53,.08-1.06,.07-1.58-.02-.52-.09-1-.26-1.41-.5s-.7-.51-.86-.81c-.15-.3-.16-.6-.03-.91,.14-.3,.42-.57,.83-.81s.89-.39,1.42-.47c.53-.08,1.05-.07,1.58,.02,.52,.09,1,.26,1.41,.5s.7,.51,.86,.81c.15,.3,.16,.6,.03,.9s-.41,.57-.83,.81-.89,.39-1.42,.47Zm4.17,2.89c-.29,.04-.6,.02-.93-.04-.33-.06-.65-.19-.96-.37s-.54-.37-.68-.57c-.14-.2-.19-.39-.15-.59,.04-.19,.18-.37,.41-.52l.93,.54c-.15,.11-.22,.23-.21,.36,0,.13,.12,.26,.32,.38,.18,.11,.37,.16,.56,.16s.36-.04,.5-.12c.13-.07,.2-.16,.2-.25,0-.09-.03-.19-.09-.29-.07-.1-.17-.23-.32-.39-.19-.21-.32-.38-.41-.53-.09-.15-.11-.3-.07-.47,.04-.16,.19-.32,.45-.47,.36-.2,.78-.29,1.25-.25,.48,.04,.94,.19,1.39,.45s.73,.54,.79,.82c.06,.28-.07,.53-.38,.75l-.94-.54c.13-.1,.18-.21,.17-.32-.01-.12-.11-.23-.3-.34-.16-.09-.33-.15-.51-.16-.18-.01-.35,.03-.5,.11-.12,.07-.19,.15-.19,.24,0,.09,.03,.18,.09,.28s.17,.22,.31,.37c.19,.22,.33,.4,.42,.55,.09,.15,.12,.31,.08,.47-.04,.17-.2,.32-.46,.48-.21,.12-.46,.2-.76,.24Z"/><path class="br" d="M481.06,326.71c-.09-.18-.26-.34-.52-.49s-.55-.25-.86-.3c-.31-.05-.63-.05-.95,0-.32,.06-.62,.16-.91,.32s-.47,.33-.57,.52c-.1,.18-.11,.37-.02,.54,.09,.18,.26,.34,.52,.49s.55,.25,.86,.3c.31,.05,.63,.05,.95,0,.32-.06,.62-.16,.91-.32s.47-.33,.57-.52c.1-.18,.11-.37,.02-.54Z"/><polygon class="br" points="461.58 317.69 462.89 318.45 464.03 317.05 461.58 317.69"/><path class="br" d="M424.05,293.71c-.01-.14-.15-.29-.42-.45l-.76-.44-1.35,.77,.76,.44c.53,.31,1.02,.33,1.47,.08,.21-.12,.32-.25,.31-.4Z"/><path class="br" d="M453.62,310.78c-.01-.14-.15-.29-.42-.45l-.76-.44-1.35,.77,.76,.44c.53,.31,1.02,.33,1.47,.08,.21-.12,.32-.25,.31-.4Z"/><path class="br" d="M507.74,342.12c-.09-.18-.26-.34-.52-.49s-.55-.25-.86-.3c-.31-.05-.63-.05-.95,0-.32,.06-.62,.16-.91,.32s-.47,.33-.57,.52c-.1,.18-.11,.37-.02,.54,.09,.18,.26,.34,.52,.49s.55,.25,.86,.3c.31,.05,.63,.05,.95,0,.32-.06,.62-.16,.91-.32s.47-.33,.57-.52c.1-.18,.11-.37,.02-.54Z"/><polygon class="br" points="425.61 296.92 426.93 297.68 428.07 296.28 425.61 296.92"/></g></g></g><path class="br" d="M458.94,430l-6.54-3.88c-2.15-1.27-3.9-3.91-3.9-5.88h0c0-1.97,1.76-2.54,3.9-1.28l6.54,3.88c2.15,1.27,3.9,3.91,3.9,5.88h0c0,1.97-1.76,2.54-3.9,1.28Z"/><path class="br" d="M476.41,440.13l-6.54-3.88c-2.15-1.27-3.9-3.91-3.9-5.88h0c0-1.97,1.76-2.54,3.9-1.28l6.54,3.88c2.15,1.27,3.9,3.91,3.9,5.88h0c0,1.97-1.76,2.54-3.9,1.28Z"/><path class="bs" d="M655.73,294.41c-10.03,6.22-132.14,77.7-132.14,77.7,0,0-13.77,6.39-26.92-1.85-13.15-8.24-127.83-74.19-127.83-74.19,0,0-3.03-2.17-3.98-5.26-1.58,4.87,3.98,8.86,3.98,8.86,0,0,114.67,65.95,127.83,74.19,13.15,8.24,26.92,1.85,26.92,1.85,0,0,122.11-71.47,132.14-77.7,3.49-2.17,3.78-4.44,2.86-6.38-.48,.93-1.38,1.87-2.86,2.79Z"/></g><g><polygon class="bh" points="237.32 15.31 237.32 66.66 186.13 97.31 186.13 52.67 224.52 30.19 228.24 20.97 237.32 15.31"/><polygon class="de" points="186.13 97.31 171.69 89.13 171.69 44.93 177.05 47.9 177.05 86.6 180.77 88.68 180.77 49.84 186.13 52.67 186.13 97.31"/><polygon class="cs" points="186.13 52.67 180.77 49.84 219.68 28.34 224.52 30.19 186.13 52.67"/><polygon class="as" points="224.52 30.19 228.24 20.97 223.11 19.3 219.68 28.34 224.52 30.19"/><polygon class="db" points="237.32 15.31 228.24 20.97 223.11 19.3 233.03 13.94 237.32 15.31"/><polygon class="ca" points="219.68 28.34 190.21 44.62 190.21 23.58 223.96 4.09 223.96 18.84 223.11 19.3 219.68 28.34"/><polygon class="cu" points="190.21 44.62 186.13 46.88 186.13 20.97 190.21 23.58 190.21 44.62"/><polygon class="dc" points="223.96 4.09 190.21 23.58 186.13 20.97 219.68 1.86 223.96 4.09"/><polygon class="cs" points="177.05 47.9 186.13 42.13 186.13 37.23 171.69 44.93 177.05 47.9"/><polygon class="bt" points="186.13 46.88 180.77 49.84 180.77 84.38 177.05 86.6 177.05 47.9 186.13 42.13 186.13 46.88"/><polygon class="cq" points="180.77 88.68 177.05 86.6 180.77 84.38 180.77 88.68"/><polygon class="cj" points="221.06 16.39 193.77 32.28 193.77 28.34 221.06 12.72 221.06 16.39"/><polygon class="cj" points="193.77 39.08 193.77 35.36 221.06 19.77 221.06 23.58 193.77 39.08"/></g></g><g id="ae"><g><polyline class="cf" points="227.46 464.81 247.08 454.04 317.01 492.78 240.81 537.16 227.46 464.81"/><polyline class="bx" points="161.71 426.55 181.65 415.46 247.08 454.04 227.46 464.81 161.71 426.55"/><polygon class="bf" points="89.21 449.7 165.33 405.17 181.65 415.46 161.71 426.55 89.21 449.7"/><polygon class="bc" points="165.33 405.17 317.01 492.78 247.08 454.04 181.65 415.46 165.33 405.17"/><polygon class="cf" points="214.54 433.6 254.98 409.83 291.33 461.24 277.54 469.99 214.54 433.6"/><polygon class="bf" points="205.61 428.44 223.17 418.06 254.98 409.83 214.54 433.6 205.61 428.44"/><polygon class="bw" points="257.66 479.22 284.97 494.81 266.83 528.86 260.95 525.43 257.66 479.22"/><polygon class="dg" points="284.55 495.6 300.66 506.86 268.27 526.16 284.55 495.6"/><path class="ca" d="M146.49,424.35v-17.18l8.65,5.24v9.14l-8.65,2.8Z"/><polygon class="dc" points="155.14 412.41 160.44 409.18 160.44 419.05 155.14 421.54 155.14 412.41"/><polygon class="bx" points="146.49 407.17 155.14 412.41 160.44 409.18 152.1 404.03 146.49 407.17"/><polygon class="be" points="182.93 524.94 111.23 482.82 113.35 482.18 180.96 522.03 182.93 524.94"/><polygon class="bn" points="182.93 575.5 114.37 535.67 114.37 484.66 182.93 524.94 182.93 575.5"/><polygon class="bw" points="240.81 537.16 89.85 449.38 161.71 426.55 227.46 464.81 240.81 537.16"/><polygon class="cf" points="182.93 524.94 146.92 472.05 186.47 449.7 200.93 513.97 182.93 524.94"/><polygon class="bf" points="186.47 449.7 146.92 472.05 111.23 482.82 140.97 466.26 186.47 449.7"/><polygon class="bn" points="113.35 482.18 180.96 522.03 146.92 472.05 113.35 482.18"/><polygon class="be" points="182.93 524.94 182.93 526.55 200.93 515.72 240.81 539.3 261.05 527.51 266.12 530.25 303.13 507.64 299.84 504.83 317.01 494.41 317.01 492.78 297.1 504.38 300.66 506.86 268.27 526.16 266.83 528.86 260.95 525.43 240.81 537.16 200.93 513.97 182.93 524.94"/><polygon class="bu" points="200.93 515.72 200.93 565.13 182.93 575.5 182.93 526.55 200.93 515.72"/><polygon class="ca" points="240.81 539.3 200.93 515.72 200.93 565.13 240.81 588.64 240.81 539.3"/><polygon class="cj" points="261.05 527.51 261.05 577.06 240.81 588.64 240.81 539.3 261.05 527.51"/><polygon class="ca" points="266.12 530.25 261.05 527.51 261.05 577.06 266.12 579.74 266.12 530.25"/><polygon class="dg" points="298.93 510.7 266.12 530.76 266.12 580.24 298.93 561.06 298.93 510.7"/><polygon class="cj" points="314.36 496.02 314.36 545.74 298.94 555.62 298.94 510.2 303.13 507.64 299.84 504.83 314.36 496.02"/><polygon class="cp" points="89.21 449.7 128.64 473.13 129.69 472.54 89.85 449.38 89.21 449.7"/><polygon class="dd" points="89.21 449.7 89.21 452.08 127.09 473.99 128.64 473.13 89.21 449.7"/><polygon class="ak" points="127.09 473.99 92.85 454.18 92.85 502.89 114.37 515.23 114.37 484.66 110.92 482.82 127.09 473.99"/><polygon class="be" points="92.85 500.64 89.23 502.22 114.37 517.25 114.37 515.23 92.85 502.89 92.85 500.64"/><polygon class="ak" points="89.23 502.22 89.23 545.61 114.37 563.43 114.37 517.25 89.23 502.22"/><polygon class="bb" points="291.33 461.24 291.33 462.29 278.47 470.52 277.54 469.99 291.33 461.24"/><polygon class="bb" points="280.17 471.51 291.33 464.07 291.33 462.29 278.47 470.52 280.17 471.51"/><polygon class="dc" points="287.8 466.42 287.8 475.91 280.17 471.51 287.8 466.42"/><polygon class="be" points="314.36 544.09 317.54 546.06 298.94 557.59 298.94 555.62 314.36 545.74 314.36 544.09"/><polygon class="be" points="298.94 558.96 302.08 560.67 266.12 581.7 261.05 578.88 240.81 590.67 200.93 567.02 182.93 577.51 110.83 535.51 114.37 534.26 114.37 535.67 182.93 575.5 200.93 565.13 240.81 588.64 261.05 577.06 266.12 579.74 298.94 560.55 298.94 558.96"/><polygon class="ca" points="235.44 638.53 240.81 641.75 240.81 590.67 200.93 567.02 200.93 618.11 206.46 621.22 235.44 638.53"/><polygon class="cj" points="240.81 590.67 261.05 578.88 261.05 630.1 240.81 641.75 240.81 590.67"/><polygon class="ca" points="261.05 578.88 266.12 581.7 266.12 633.09 261.05 630.1 261.05 578.88"/><polygon class="dg" points="266.12 581.7 302.08 560.67 301.08 611.86 288.69 619.67 288.81 585.71 276.49 592.48 276.82 627.1 266.12 633.09 266.12 581.7"/><polygon class="cj" points="298.94 557.59 317.54 546.06 317.54 596.25 301.16 608.01 302.08 560.67 298.94 558.96 298.94 557.59"/><polygon class="bu" points="182.93 577.51 200.93 567.02 200.93 618.11 182.93 629.12 182.93 577.51"/><polygon class="bn" points="110.83 535.51 111.07 535.65 182.93 577.51 182.93 629.12 159.86 615.75 159.86 581.75 131.94 565.6 131.94 599.58 111.23 587.71 110.83 535.51"/><polygon class="dc" points="118.25 478.91 99.4 467.37 99.4 492.84 114.37 501.8 114.37 484.66 111.23 482.82 118.25 478.91"/><polygon class="cu" points="114.37 499.5 101.55 491.93 101.8 468.84 99.12 467.37 99.4 492.84 114.37 501.8 114.37 499.5"/><polygon class="cu" points="114.37 488.68 101.66 482.18 101.64 484.02 114.37 490.53 114.37 488.68"/><polygon class="ar" points="159.86 581.63 131.94 565.48 131.94 598.88 159.86 614.6 159.86 581.63"/><polygon class="dg" points="147 574.19 147.04 607.38 145.25 606.37 145.21 573.16 147 574.19"/><polygon class="ay" points="131.94 565.48 134 566.67 134 600.04 131.94 598.88 131.94 565.48"/><polygon class="ar" points="113.09 534.72 99.2 525.98 99.2 552.68 111.04 561.07 110.83 535.51 113.09 534.72"/><polygon class="dc" points="234.88 545.61 207.54 530.08 207.54 555.39 234.88 571.25 234.88 545.61"/><polygon class="ay" points="273.23 537.16 291.51 526.56 291.51 551.56 273.23 562.47 273.23 537.16"/><polygon class="ay" points="286.45 619.11 288.69 619.67 288.81 585.71 286.45 587.01 286.45 619.11"/><polygon class="ar" points="286.45 619.11 276.81 625.53 276.49 592.48 286.45 587.01 286.45 619.11"/><polygon class="cp" points="284.97 494.81 303.13 507.64 300.66 506.86 284.55 495.6 284.97 494.81"/><line class="aq" x1="175.04" y1="532.83" x2="172.75" y2="530.08"/><polygon class="ca" points="115.25 528.23 115.99 502.2 176.54 538.41 176.54 563.59 115.25 528.23"/><polygon class="cu" points="175.36 559.95 119.08 526.89 117.26 527.12 175.36 561.4 175.36 559.95"/><polygon class="bj" points="117.26 527.12 117.26 504.62 119.12 505.73 119.12 526.91 117.26 527.12"/><path class="al" d="M119.12,505.73c1.1,.37,55.89,33.57,55.89,33.57l.35,20.65-56.24-33.03v-21.18Z"/><polygon class="da" points="176.54 538.41 180.23 536.21 180.23 561.27 176.54 563.59 176.54 538.41"/><polygon class="be" points="180.05 536.21 176.54 538.41 115.99 502.2 119.86 499.97 180.05 536.21"/><g><path class="by" d="M130.19,527.82l-1.78-1.03-2.96-6.76-.03,5.04-1.78-1.03,.04-8.17,1.78,1.03,2.96,6.78,.03-5.06,1.78,1.03-.04,8.17Z"/><path class="by" d="M133.05,529.01c-.57-.69-1.02-1.45-1.36-2.28s-.5-1.65-.49-2.45,.18-1.42,.52-1.86c.34-.44,.8-.68,1.37-.7,.58-.03,1.21,.16,1.9,.55s1.32,.94,1.89,1.63c.57,.69,1.02,1.44,1.35,2.27,.33,.83,.49,1.64,.48,2.44s-.17,1.42-.51,1.87c-.34,.45-.79,.69-1.36,.71-.57,.03-1.2-.16-1.89-.55s-1.32-.94-1.89-1.63Zm3.31-.03c.35-.23,.53-.71,.54-1.42s-.17-1.4-.52-2.03c-.35-.63-.82-1.12-1.4-1.45s-1.06-.4-1.42-.17c-.35,.22-.53,.7-.54,1.43s.17,1.4,.52,2.03c.35,.63,.82,1.12,1.41,1.46s1.05,.39,1.41,.16Z"/><path class="by" d="M144.99,528.15v1.59l-1.95-1.12-.03,6.58-1.78-1.03,.03-6.58-1.94-1.12v-1.59l5.67,3.26Z"/><path class="by" d="M150.41,538.02l-2.73-1.57-.45,1.19-1.87-1.08,2.69-6.64,2.07,1.19,2.61,9.7-1.89-1.09-.43-1.7Zm-.45-1.8l-.89-3.51-.91,2.47,1.8,1.04Z"/><path class="by" d="M157.26,543.41l-1.51-3.96-.43-.25-.02,3.08-1.78-1.03,.04-8.17,2.99,1.72c.58,.33,1.07,.73,1.47,1.19,.41,.46,.71,.94,.91,1.45,.2,.51,.3,1,.3,1.48,0,.54-.14,.95-.42,1.22-.28,.27-.68,.34-1.22,.21l1.67,4.21-2.01-1.16Zm-1.93-5.62l1.11,.64c.33,.19,.57,.24,.74,.16,.16-.08,.25-.29,.25-.62s-.08-.6-.24-.87c-.16-.27-.41-.5-.73-.69l-1.11-.64v2.02Z"/><path class="by" d="M162.15,538.03l-.04,8.17-1.78-1.03,.04-8.17,1.78,1.03Z"/><path class="by" d="M167.97,548.13l-2.73-1.57-.45,1.19-1.87-1.08,2.69-6.64,2.07,1.19,2.61,9.7-1.89-1.09-.43-1.7Zm-.45-1.8l-.89-3.51-.91,2.47,1.8,1.04Z"/></g><path class="ax" d="M115.99,502.2v25.62l60.56,35.77v-25.18l-60.56-36.21Zm59.37,59.19l-58.1-34.28v-22.5l57.75,34.68,.35,22.1Z"/><polygon class="cy" points="291.78 526.4 291.84 551.64 273.23 562.75 273.23 561.36 290.85 550.78 290.85 542.01 273.23 551.86 273.23 550.07 281.81 545.17 281.81 532.18 283.19 531.38 283.19 544.51 290.71 540.42 290.65 527.06 291.78 526.4"/><polygon class="ay" points="99.2 526.06 101.27 527.26 101.27 554.14 99.2 552.68 99.2 526.06"/><polygon class="cu" points="207.54 530.08 207.54 555.42 234.88 571.25 234.88 569.88 208.7 554.34 208.7 547.48 234.88 563.29 234.88 561.92 222.49 554.27 222.49 538.57 221.48 538 221.48 553.83 208.63 545.89 208.7 530.74 207.54 530.08"/><polygon class="dc" points="234.88 596.61 207.54 581.08 207.54 606.39 234.88 622.25 234.88 596.61"/><polygon class="cu" points="207.54 581.08 207.54 606.42 234.88 622.25 234.88 620.88 208.7 605.34 208.7 598.48 234.88 614.29 234.88 612.92 222.49 605.27 222.49 589.57 221.48 589 221.48 604.83 208.63 596.89 208.7 581.74 207.54 581.08"/></g></g></g></svg>