<?xml version="1.0" encoding="UTF-8"?><svg xmlns="http://www.w3.org/2000/svg" xmlns:xlink="http://www.w3.org/1999/xlink" viewBox="0 0 90.51 72.86"><defs><style>.e{fill:url(#d);}.f{fill:#312a91;}</style><linearGradient id="d" x1="0" y1="46.74" x2="90.5" y2="46.74" gradientTransform="matrix(1, 0, 0, 1, 0, 0)" gradientUnits="userSpaceOnUse"><stop offset="0" stop-color="#42e8e0"/><stop offset=".1" stop-color="#3cc9cd"/><stop offset=".34" stop-color="#2f87a5"/><stop offset=".56" stop-color="#255285"/><stop offset=".75" stop-color="#1e2c6e"/><stop offset=".91" stop-color="#191560"/><stop offset="1" stop-color="#180d5b"/></linearGradient></defs><g id="a"/><g id="b"><g id="c"><g><path class="e" d="M90.49,46.74c0-.13,.01-.27,0-.4V26.49l-31.53,.14-8.47-4.89c-2.89-1.67-7.94-1.46-11.28,.47l-7.87,4.55L0,26.89v19.85h.01c-.08,1.13,.55,2.22,1.94,3.02l38.06,21.98c2.89,1.67,7.94,1.46,11.28-.47l36.44-21.04c1.74-1,2.66-2.27,2.75-3.49h0Z"/><path class="f" d="M40.02,51.13L1.95,29.15c-2.89-1.67-2.53-4.59,.81-6.51L39.2,1.6c3.34-1.93,8.39-2.14,11.28-.47l38.06,21.98c2.89,1.67,2.53,4.59-.81,6.51l-36.44,21.04c-3.34,1.93-8.39,2.14-11.28,.47Z"/></g></g></g></svg>