<?xml version="1.0" encoding="UTF-8"?><svg xmlns="http://www.w3.org/2000/svg" xmlns:xlink="http://www.w3.org/1999/xlink" viewBox="0 0 131.86 92.62"><defs><style>.g{fill:#4a008e;}.h,.i{fill:#120250;}.h,.j{mix-blend-mode:multiply;opacity:.5;}.k{isolation:isolate;}.l{fill:url(#f);}.m{fill:#1f1260;}.n{fill:url(#d);}.o{fill:url(#e);}</style><linearGradient id="d" x1="3.99" y1="29.83" x2="127.88" y2="29.83" gradientTransform="matrix(1, 0, 0, 1, 0, 0)" gradientUnits="userSpaceOnUse"><stop offset=".09" stop-color="#bf1fff"/><stop offset=".18" stop-color="#c127fd"/><stop offset=".34" stop-color="#c73ff9"/><stop offset=".53" stop-color="#d266f3"/><stop offset=".63" stop-color="#d87df0"/><stop offset=".72" stop-color="#c998f2"/><stop offset=".92" stop-color="#a3e0f9"/><stop offset="1" stop-color="#93fffd"/></linearGradient><linearGradient id="e" x1="52.91" y1="104.76" x2="52.91" y2="41.92" gradientTransform="matrix(1, 0, 0, 1, 0, 0)" gradientUnits="userSpaceOnUse"><stop offset="0" stop-color="#6000b8"/><stop offset=".21" stop-color="#5c00b2"/><stop offset=".48" stop-color="#5300a1"/><stop offset=".79" stop-color="#430086"/><stop offset="1" stop-color="#36006f"/></linearGradient><linearGradient id="f" x1="83.57" y1="99.63" x2="83.57" y2="30.41" gradientTransform="matrix(1, 0, 0, 1, 0, 0)" gradientUnits="userSpaceOnUse"><stop offset=".01" stop-color="#00f1ff"/><stop offset=".11" stop-color="#04e9ff"/><stop offset=".25" stop-color="#12d5ff"/><stop offset=".42" stop-color="#27b4ff"/><stop offset=".61" stop-color="#4685ff"/><stop offset=".83" stop-color="#6c4bff"/><stop offset="1" stop-color="#9015ff"/></linearGradient></defs><g class="k"><g id="a"/><g id="b"><g id="c"><g><polygon class="m" points="0 68.86 73.5 28.34 131.86 63.89 101.78 80.51 82.3 68.73 39.21 92.62 0 68.86"/><g class="k"><g><polygon class="n" points="3.99 38.29 39.25 59.65 82.34 35.77 101.82 47.55 127.88 33.15 73.45 0 3.99 38.29"/><polygon class="g" points="7.99 38.37 73.4 2.31 123.9 33.06 101.87 45.24 82.39 33.46 39.3 57.34 7.99 38.37"/><polygon class="i" points="73.4 3.83 122.59 33.79 123.9 33.06 73.4 2.31 7.99 38.37 9.3 39.17 73.4 3.83"/></g><path class="o" d="M101.82,47.55v30.75l-19.48-11.78v-30.75l19.48,11.78ZM3.99,38.29v30.75l35.26,21.37v-30.75L3.99,38.29Z"/><path class="l" d="M127.88,33.15v30.75l-26.06,14.4v-30.75l26.06-14.4ZM39.25,59.65v30.75l43.09-23.89v-30.75l-43.09,23.89Z"/></g><polygon class="h" points="62.66 72.59 62.66 77.43 79.12 68.31 79.12 63.47 62.66 72.59"/><g class="j"><path class="i" d="M82.34,39.65l-43.09,23.89v2.64l43.09-23.89v-2.64Zm0,7.06l-43.09,23.89v2.64l43.09-23.89v-2.64Zm19.48,14.42l26.06-14.4v-2.64l-26.06,14.4v2.64Zm0-7.06l26.06-14.4v-2.64l-26.06,14.4v2.64Zm0,11.48v2.64l26.06-14.4v-2.64l-26.06,14.4Zm-62.57,12.11v2.64l43.09-23.89v-2.64l-43.09,23.89Z"/><path class="i" d="M82.34,53.78v2.64l19.48,11.78v-2.64l-19.48-11.78Zm19.48-2.34l-19.48-11.78v2.64l19.48,11.78v-2.64Zm0,7.06l-19.48-11.78v2.64l19.48,11.78v-2.64Zm-62.57,19.17L3.99,56.3v2.64l35.26,21.37v-2.64Zm0-14.12L3.99,42.17v2.64l35.26,21.37v-2.64Zm0,7.06L3.99,49.23v2.64l35.26,21.37v-2.64Z"/></g></g></g></g></g></svg>