<?xml version="1.0" encoding="UTF-8"?><svg xmlns="http://www.w3.org/2000/svg" xmlns:xlink="http://www.w3.org/1999/xlink" viewBox="0 0 476.5 280.68"><defs><style>.e{isolation:isolate;}.f{fill:#100245;}.g{fill:url(#d);}</style><linearGradient id="d" x1="238.25" y1="466.89" x2="238.25" y2="118.84" gradientTransform="matrix(1, 0, 0, 1, 0, 0)" gradientUnits="userSpaceOnUse"><stop offset="0" stop-color="#c70095"/><stop offset=".11" stop-color="#c10094"/><stop offset=".27" stop-color="#b00193"/><stop offset=".44" stop-color="#940390"/><stop offset=".63" stop-color="#6e068d"/><stop offset=".82" stop-color="#3e0989"/><stop offset="1" stop-color="#0c0d85"/></linearGradient></defs><g id="a"/><g id="b"><g id="c"><g class="e"><path class="f" d="M474.12,134.7c3.15,1.82,3.17,4.77,.04,6.59l-229.44,133.34c-3.13,1.82-8.24,1.82-11.39,0L2.39,141.3c-3.15-1.82-3.17-4.78-.04-6.59L231.79,1.37c3.14-1.82,8.24-1.82,11.39,0l230.94,133.34Z"/><path class="g" d="M476.5,138.02c0,.08-.01,.16-.02,.24,0,.08-.01,.17-.03,.25-.01,.07-.03,.14-.05,.21-.02,.08-.04,.16-.07,.24-.02,.07-.05,.13-.08,.2-.04,.08-.07,.17-.12,.25-.03,.06-.07,.12-.11,.18-.06,.09-.12,.19-.19,.28-.04,.05-.09,.11-.13,.16-.1,.12-.22,.25-.34,.37-.04,.04-.09,.09-.13,.13-.08,.07-.16,.14-.25,.2-.07,.06-.15,.12-.23,.18-.09,.07-.19,.13-.29,.19-.1,.07-.2,.13-.31,.2l-229.44,133.34c-.35,.2-.73,.37-1.12,.53-.1,.04-.21,.08-.31,.12-.24,.09-.5,.16-.75,.23-.26,.07-.53,.14-.81,.2-.32,.07-.65,.13-.98,.17-.08,0-.16,.02-.24,.03-.45,.05-.9,.07-1.36,.08-.07,0-.14,0-.22,0-.45,0-.9-.03-1.34-.07-.07,0-.13-.01-.2-.02-.44-.05-.87-.13-1.29-.22-.08-.02-.15-.04-.23-.06-.38-.09-.75-.21-1.11-.34-.07-.02-.14-.04-.2-.07-.43-.17-.84-.36-1.22-.58L2.39,141.3c-1.58-.91-2.38-2.12-2.37-3.32v4.69c-.02,1.2,.77,2.41,2.36,3.32l230.94,133.34c.36,.21,.75,.39,1.16,.55,.02,0,.05,.01,.07,.02,.07,.03,.14,.04,.2,.07,.23,.08,.46,.17,.71,.24,.13,.04,.27,.07,.41,.1,.08,.02,.15,.04,.23,.06,.07,.02,.13,.04,.2,.05,.26,.05,.53,.1,.8,.14,.1,.01,.19,.02,.29,.03,.07,0,.13,.02,.2,.02,.1,.01,.19,.02,.29,.03,.26,.02,.53,.04,.8,.04,.08,0,.17,0,.25,0,.07,0,.14,0,.22,0,.12,0,.24,0,.36,0,.3-.01,.6-.03,.9-.06,.03,0,.07-.01,.1-.01,.08,0,.16-.02,.24-.03,.23-.03,.47-.06,.69-.1,.1-.02,.19-.05,.29-.07,.28-.06,.54-.13,.81-.2,.14-.04,.29-.06,.43-.11,.11-.04,.22-.08,.32-.12,.11-.04,.21-.08,.31-.12,.39-.16,.77-.33,1.12-.53l229.44-133.34s.07-.04,.1-.06c.07-.04,.14-.09,.21-.14,.1-.06,.2-.13,.29-.19,.08-.06,.15-.12,.23-.18,.08-.07,.17-.13,.25-.2,.02-.01,.03-.03,.05-.04,.03-.03,.05-.06,.08-.09,.12-.12,.24-.24,.34-.37,.02-.03,.05-.05,.07-.08,.02-.03,.04-.06,.06-.08,.07-.09,.13-.19,.19-.28,.02-.04,.06-.08,.08-.12,.01-.02,.02-.04,.03-.06,.04-.08,.08-.17,.12-.25,.02-.05,.05-.1,.07-.15,0-.02,0-.03,.01-.05,.03-.08,.05-.16,.07-.24,.01-.05,.04-.11,.05-.16,0-.01,0-.03,0-.04,.02-.08,.02-.17,.03-.25,0-.06,.02-.11,.02-.17,0-.02,0-.05,0-.07h0v-4.69Z"/></g></g></g></svg>